<?xml version="1.0" encoding="UTF-8"?>
<svg version="1.1" xmlns="http://www.w3.org/2000/svg" width="375" height="271">
<path d="M0 0 C17.7260274 0.79452055 17.7260274 0.79452055 24.75 6.0625 C29.79978389 9.07294809 37.17400529 10.83967441 43.046875 9.55078125 C43.69140625 9.36902344 44.3359375 9.18726563 45 9 C46.87324188 8.90875326 48.74954391 8.86994486 50.625 8.875 C51.58664063 8.87242188 52.54828125 8.86984375 53.5390625 8.8671875 C56 9 56 9 58 10 C57.67 10.99 57.34 11.98 57 13 C56.34 13 55.68 13 55 13 C55 13.66 55 14.32 55 15 C55.62648438 15.20496094 56.25296875 15.40992188 56.8984375 15.62109375 C57.71570313 15.89050781 58.53296875 16.15992187 59.375 16.4375 C60.59316406 16.83775391 60.59316406 16.83775391 61.8359375 17.24609375 C64 18 64 18 66 19 C67.70702735 19.06996014 69.41668003 19.08440154 71.125 19.0625 C72.49011719 19.04896484 72.49011719 19.04896484 73.8828125 19.03515625 C74.58148438 19.02355469 75.28015625 19.01195313 76 19 C76 20.32 76 21.64 76 23 C77.01320312 23.18755859 77.01320312 23.18755859 78.046875 23.37890625 C81.48878351 24.10279971 84.85665643 25.01236003 88.25 25.9375 C99.45469669 29.18493967 99.45469669 29.18493967 111 30 C111 28.68 111 27.36 111 26 C112.98 26 114.96 26 117 26 C117 25.34 117 24.68 117 24 C115.37675914 23.77837671 113.751279 23.57310197 112.125 23.375 C111.22007812 23.25898437 110.31515625 23.14296875 109.3828125 23.0234375 C108.59648437 23.01570313 107.81015625 23.00796875 107 23 C106.34 23.66 105.68 24.32 105 25 C102.0574037 24.69347955 99.65457692 24.32728846 97 23 C97.33 22.01 97.66 21.02 98 20 C100.06640625 19.05078125 100.06640625 19.05078125 102.5625 18.3125 C103.38878906 18.06113281 104.21507812 17.80976562 105.06640625 17.55078125 C106.02353516 17.27814453 106.02353516 17.27814453 107 17 C107 16.67 107 16.34 107 16 C108.98 16 110.96 16 113 16 C113.33 17.32 113.66 18.64 114 20 C118.67533173 19.55044887 121.38056955 18.97310359 125 16 C125.99 16 126.98 16 128 16 C128 17.98 128 19.96 128 22 C129.98 22.66 131.96 23.32 134 24 C134 23.01 134 22.02 134 21 C134.73605469 21.09539063 135.47210938 21.19078125 136.23046875 21.2890625 C137.20628906 21.39992188 138.18210938 21.51078125 139.1875 21.625 C140.15042969 21.74101563 141.11335937 21.85703125 142.10546875 21.9765625 C145.25994098 22.00210479 147.13960931 21.24596679 150 20 C152.67770941 20.31136156 154.59556732 20.79778366 157 22 C158.99960012 22.039992 161.00047242 22.04346799 163 22 C163.33 21.34 163.66 20.68 164 20 C161.69 20 159.38 20 157 20 C157 19.67 157 19.34 157 19 C158.2375 18.979375 159.475 18.95875 160.75 18.9375 C161.44609375 18.92589844 162.1421875 18.91429688 162.859375 18.90234375 C165 19 165 19 166.87329102 19.49072266 C169.02680011 20.00641775 170.95778647 20.17147466 173.16796875 20.24609375 C174.37247681 20.2934668 174.37247681 20.2934668 175.60131836 20.34179688 C176.4547583 20.37337891 177.30819824 20.40496094 178.1875 20.4375 C184.97160138 20.73027643 191.6948879 21.18807806 198.4375 22 C199.12803467 22.08306396 199.81856934 22.16612793 200.5300293 22.25170898 C211.50891475 23.6382142 211.50891475 23.6382142 215 27 C215 27.99 215 28.98 215 30 C216.66289063 29.98259766 216.66289063 29.98259766 218.359375 29.96484375 C219.82291498 29.95546208 221.28645678 29.94636229 222.75 29.9375 C223.47960937 29.92912109 224.20921875 29.92074219 224.9609375 29.91210938 C228.48670558 29.89608316 231.61034916 30.04707287 235 31 C235 31.66 235 32.32 235 33 C234.01 33.66 233.02 34.32 232 35 C231.67 35.99 231.34 36.98 231 38 C230.34 38 229.68 38 229 38 C229 38.99 229 39.98 229 41 C232.81813447 40.72459296 232.81813447 40.72459296 236 39 C239.4375 39.1875 239.4375 39.1875 243 40 C244.4375 42.0625 244.4375 42.0625 245 44 C243.68 44.99 242.36 45.98 241 47 C241.928125 46.773125 242.85625 46.54625 243.8125 46.3125 C247 46 247 46 248.625 47.3125 C249.07875 47.869375 249.5325 48.42625 250 49 C251.3153341 49.70151152 252.65117592 50.36525925 254 51 C255.67334039 51.98879205 257.34151823 52.98648336 259 54 C257.91803946 56.5245746 256.99366244 58.00576142 254.9375 59.875 C252.5209638 62.52539454 252.31939776 64.48662462 252 68 C254.2236068 69.2981424 254.2236068 69.2981424 258 69 C258 70.65 258 72.3 258 74 C257.08476562 74.13277344 256.16953125 74.26554687 255.2265625 74.40234375 C253.44378906 74.66724609 253.44378906 74.66724609 251.625 74.9375 C249.84996094 75.19853516 249.84996094 75.19853516 248.0390625 75.46484375 C245.09297619 75.83462786 245.09297619 75.83462786 243 77 C243 77.66 243 78.32 243 79 C244.65 79 246.3 79 248 79 C248 79.66 248 80.32 248 81 C250.97 81.99 253.94 82.98 257 84 C257.33 85.65 257.66 87.3 258 89 C254.05272412 89.17942163 251.4019487 89.09350689 248 87 C248.350625 87.556875 248.70125 88.11375 249.0625 88.6875 C250.21845993 91.53886783 249.80967438 93.08517222 249 96 C248.01 96 247.02 96 246 96 C247.65587522 99.16948699 247.65587522 99.16948699 250.3828125 99.73046875 C251.74019531 99.95669922 251.74019531 99.95669922 253.125 100.1875 C254.03507812 100.34605469 254.94515625 100.50460938 255.8828125 100.66796875 C256.58148438 100.77753906 257.28015625 100.88710937 258 101 C259 104 259 104 258.1875 106.6875 C256 109 256 109 253.5703125 109.3203125 C251.02969003 109.31311527 248.53115602 109.21369985 246 109 C246 109.66 246 110.32 246 111 C245.27296875 111.21914062 244.5459375 111.43828125 243.796875 111.6640625 C232.36924547 115.20707345 232.36924547 115.20707345 222 121 C221.11732252 123.49515627 221.11732252 123.49515627 221 126 C220.67516582 127.33542939 220.3449145 128.66961551 220 130 C221.98 130.33 223.96 130.66 226 131 C226.33 133.64 226.66 136.28 227 139 C224.36 139.33 221.72 139.66 219 140 C220.65 140.66 222.3 141.32 224 142 C222.83017714 145.50946859 221.44149831 146.46466272 218.25390625 148.21484375 C213.95606432 149.71201226 209.48568055 149.29201537 205 149 C207.64 149.66 210.28 150.32 213 151 C213 152.32 213 153.64 213 155 C212.26394531 154.96519531 211.52789062 154.93039063 210.76953125 154.89453125 C203.34597858 154.53476555 203.34597858 154.53476555 197 158 C196.67 158.66 196.34 159.32 196 160 C198.14576637 160.02685938 200.29162645 160.04633088 202.4375 160.0625 C204.22994141 160.07990234 204.22994141 160.07990234 206.05859375 160.09765625 C208.88873341 160.33901792 208.88873341 160.33901792 210 159 C215.2185384 159.04312842 219.83563392 159.64164025 224 163 C224 163.66 224 164.32 224 165 C222.02 165.66 220.04 166.32 218 167 C218.66 167.66 219.32 168.32 220 169 C220.703125 171.27734375 220.703125 171.27734375 221.25 173.9375 C221.53617187 175.25041016 221.53617187 175.25041016 221.828125 176.58984375 C222 179 222 179 220 182 C216.2944961 183.94219515 213.38663075 184.17509548 209.25 184 C203.80906599 183.89225873 199.24734984 184.60070671 194 186 C194.66 187.65 195.32 189.3 196 191 C188.92291961 191.19156007 182.78758223 191.21901727 176 189 C170.36814585 187.82604276 170.36814585 187.82604276 165 189 C162.66404762 188.68554487 160.33094534 188.3496418 158 188 C156.0003305 187.96364237 153.99940538 187.95123402 152 188 C151.01 190.97 151.01 190.97 150 194 C151.093125 194.0825 152.18625 194.165 153.3125 194.25 C157 195 157 195 158.9375 197.0625 C159.288125 197.701875 159.63875 198.34125 160 199 C159.01 199.33 158.02 199.66 157 200 C158.65 200.99 160.3 201.98 162 203 C161.67 203.66 161.34 204.32 161 205 C159.68 205 158.36 205 157 205 C157.66 207.64 158.32 210.28 159 213 C156.45724602 212.7161296 153.91608446 212.42316578 151.375 212.125 C150.66214844 212.04636719 149.94929687 211.96773437 149.21484375 211.88671875 C144.91797815 211.37424854 141.078793 210.53115573 137 209 C137 209.66 137 210.32 137 211 C137.66 211.33 138.32 211.66 139 212 C138.67 212.99 138.34 213.98 138 215 C137.45061768 214.81824219 136.90123535 214.63648438 136.33520508 214.44921875 C133.83007362 213.62517973 131.32139382 212.81250828 128.8125 212 C127.94818359 211.71382812 127.08386719 211.42765625 126.19335938 211.1328125 C125.35224609 210.86210937 124.51113281 210.59140625 123.64453125 210.3125 C122.87471924 210.06113281 122.10490723 209.80976563 121.31176758 209.55078125 C118.72894749 208.93542143 116.64274122 208.69490889 114 209 C113.34 209.99 112.68 210.98 112 212 C111.34 212 110.68 212 110 212 C109.01 208.535 109.01 208.535 108 205 C106.58800422 204.60777895 105.17007236 204.23688941 103.75 203.875 C102.96109375 203.66617188 102.1721875 203.45734375 101.359375 203.2421875 C98.5796929 202.95685589 97.34112451 203.55022106 95 205 C94.67 204.34 94.34 203.68 94 203 C94.33 202.34 94.66 201.68 95 201 C93.86820313 200.93941406 92.73640625 200.87882813 91.5703125 200.81640625 C90.08852855 200.73200083 88.6067584 200.64735283 87.125 200.5625 C86.37863281 200.52318359 85.63226563 200.48386719 84.86328125 200.44335938 C79.2265625 200.11328125 79.2265625 200.11328125 77 199 C74.99875639 199.32578384 72.99897128 199.66055205 71 200 C69.824375 199.9175 68.64875 199.835 67.4375 199.75 C63.81847978 199.63655885 63.81847978 199.63655885 61.5 202.5 C59 205 59 205 55.375 205.4375 C52 205 52 205 49 203 C49 202.01 49 201.02 49 200 C51.97 200.33 54.94 200.66 58 201 C58 200.34 58 199.68 58 199 C57.30140869 199.01047363 56.60281738 199.02094727 55.88305664 199.03173828 C13.78022378 199.57803438 13.78022378 199.57803438 6.140625 193.52734375 C2.12407049 190.66151744 -2.99086083 190.0891596 -7.73828125 188.98242188 C-12.70354521 187.76667975 -16.82545196 186.26212135 -21.20214844 183.58959961 C-23.08734481 182.75804283 -23.08734481 182.75804283 -25.22753906 183.89282227 C-25.81245117 184.25819092 -26.39736328 184.62355957 -27 185 C-27.66 184.01 -28.32 183.02 -29 182 C-32.37462715 182.54723683 -34.08235 183.0549 -37 185 C-40.40632707 184.82531656 -41.74468586 184.22771261 -44.3125 181.9375 C-44.869375 181.298125 -45.42625 180.65875 -46 180 C-45.34 179.67 -44.68 179.34 -44 179 C-43.89702985 175.51818893 -43.89702985 175.51818893 -44.5625 172.125 C-45.211857 168.9709803 -44.54383279 166.14214498 -44 163 C-41.36 163 -38.72 163 -36 163 C-36.58007812 162.80664062 -37.16015625 162.61328125 -37.7578125 162.4140625 C-44.37890625 160.20703125 -44.37890625 160.20703125 -51 158 C-51 157.01 -51 156.02 -51 155 C-49.5459375 154.5978125 -49.5459375 154.5978125 -48.0625 154.1875 C-46.5465625 153.5996875 -46.5465625 153.5996875 -45 153 C-44.67 152.01 -44.34 151.02 -44 150 C-41.93359375 149.26953125 -41.93359375 149.26953125 -39.4375 148.8125 C-38.61121094 148.65394531 -37.78492187 148.49539062 -36.93359375 148.33203125 C-36.29550781 148.22246094 -35.65742187 148.11289063 -35 148 C-36.175625 147.505 -37.35125 147.01 -38.5625 146.5 C-42.04121343 144.78825212 -44.16579702 142.92485396 -46.625 139.9375 C-50.06871624 135.77408576 -52.93968755 133.30272024 -58.52734375 132.75 C-60.29199443 132.62847456 -62.0597514 132.54409656 -63.828125 132.50390625 C-66 132 -66 132 -67.296875 129.96484375 C-67.52890625 129.31644531 -67.7609375 128.66804687 -68 128 C-65.01353231 126.00902154 -62.40312738 125.05875074 -59 124 C-62.16952847 120.73991357 -65.39937989 117.77762123 -69 115 C-68.625 112.5625 -68.625 112.5625 -68 110 C-64.69005287 108.34502644 -61.00877 108.89915665 -57.375 108.9375 C-56.57320312 108.94201172 -55.77140625 108.94652344 -54.9453125 108.95117188 C-52.96350994 108.96296832 -50.98174567 108.98090395 -49 109 C-52.58035906 106.04466052 -54.37666931 105.90368061 -59 106 C-61.375 105 -61.375 105 -63 104 C-63 103.34 -63 102.68 -63 102 C-57.25 101 -57.25 101 -55 101 C-55.33 100.01 -55.66 99.02 -56 98 C-55 97 -55 97 -51.6875 96.625 C-48 97 -48 97 -45.5625 99.375 C-44 102 -44 102 -44 104 C-39.545 104.99 -39.545 104.99 -35 106 C-35.33 104.68 -35.66 103.36 -36 102 C-37.65 101.67 -39.3 101.34 -41 101 C-41.99 98.03 -41.99 98.03 -43 95 C-38.61253561 91.11396011 -38.61253561 91.11396011 -35.3125 90.5 C-32.90720667 90.21185684 -32.90720667 90.21185684 -31.5 88.375 C-30.7363689 84.74775227 -32.52180138 82.3111649 -34 79 C-33.6875 76.5625 -33.6875 76.5625 -33 75 C-30.525 74.505 -30.525 74.505 -28 74 C-28.99 73.505 -28.99 73.505 -30 73 C-30 72.01 -30 71.02 -30 70 C-26.85375007 69.73781251 -25.38162983 69.75245633 -22.6875 71.5 C-22.130625 71.995 -21.57375 72.49 -21 73 C-20.855625 72.21625 -20.71125 71.4325 -20.5625 70.625 C-20 68 -20 68 -19 66 C-19.71027344 65.81824219 -20.42054687 65.63648437 -21.15234375 65.44921875 C-22.07144531 65.19785156 -22.99054688 64.94648437 -23.9375 64.6875 C-24.85402344 64.44386719 -25.77054688 64.20023437 -26.71484375 63.94921875 C-27.46894531 63.63597656 -28.22304688 63.32273438 -29 63 C-29.33 62.01 -29.66 61.02 -30 60 C-27.525 59.505 -27.525 59.505 -25 59 C-26.32 58.67 -27.64 58.34 -29 58 C-28.01 58 -27.02 58 -26 58 C-26 57.34 -26 56.68 -26 56 C-24.02 56 -22.04 56 -20 56 C-21.7015625 55.38125 -21.7015625 55.38125 -23.4375 54.75 C-24.613125 54.1725 -25.78875 53.595 -27 53 C-27.495 51.02 -27.495 51.02 -28 49 C-31.96 48.01 -35.92 47.02 -40 46 C-40 45.01 -40 44.02 -40 43 C-32.65431706 43.53423149 -26.69408241 45.59884644 -20.5 49.625 C-16.86922571 51.62192586 -13.04844522 52.25028792 -9 53 C-9 52.34 -9 51.68 -9 51 C-8.34 50.67 -7.68 50.34 -7 50 C-7.99 49.67 -8.98 49.34 -10 49 C-10 48.34 -10 47.68 -10 47 C-6.80973467 44.67980703 -3.58273331 42.65356922 0 41 C0 40.67 0 40.34 0 40 C1.58129029 39.77668801 3.16521089 39.57195356 4.75 39.375 C5.63171875 39.25898437 6.5134375 39.14296875 7.421875 39.0234375 C10.22859878 38.99792183 11.63384866 39.55156156 14 41 C14.33 40.01 14.66 39.02 15 38 C14.15695313 37.72285156 13.31390625 37.44570312 12.4453125 37.16015625 C11.34960938 36.79792969 10.25390625 36.43570313 9.125 36.0625 C8.03445312 35.70285156 6.94390625 35.34320313 5.8203125 34.97265625 C3 34 3 34 1 33 C1 32.34 1 31.68 1 31 C1.99 31 2.98 31 4 31 C4 30.01 4 29.02 4 28 C3.030625 27.731875 2.06125 27.46375 1.0625 27.1875 C0.051875 26.795625 -0.95875 26.40375 -2 26 C-2.495 24.515 -2.495 24.515 -3 23 C-1.35 23 0.3 23 2 23 C-2.0588791 18.28646298 -6.28006315 16.29246978 -12 14 C-12.66 13.67 -13.32 13.34 -14 13 C-14 12.34 -14 11.68 -14 11 C-15.65 11 -17.3 11 -19 11 C-18.34 9.68 -17.68 8.36 -17 7 C-14.36 7.33 -11.72 7.66 -9 8 C-8.7215625 6.824375 -8.7215625 6.824375 -8.4375 5.625 C-7 3 -7 3 -3.375 1.6875 C-2.26125 1.460625 -1.1475 1.23375 0 1 C0 0.67 0 0.34 0 0 Z M224 35 C225.98 35.99 225.98 35.99 228 37 C228 36.34 228 35.68 228 35 C226.68 35 225.36 35 224 35 Z M215 36 C218.44450737 38.29633824 220.93812283 38.54016485 225 39 C223.94369738 37.35429841 223.94369738 37.35429841 222 36 C218.37464024 35.7496423 218.37464024 35.7496423 215 36 Z M-19 72 C-17.02 72.99 -17.02 72.99 -15 74 C-14.67 73.34 -14.34 72.68 -14 72 C-15.65 72 -17.3 72 -19 72 Z M-20 74 C-19.67 74.66 -19.34 75.32 -19 76 C-18.34 75.67 -17.68 75.34 -17 75 C-17.99 74.67 -18.98 74.34 -20 74 Z M-43 108 C-42.67 108.66 -42.34 109.32 -42 110 C-42.33 110.66 -42.66 111.32 -43 112 C-41.02 112.66 -39.04 113.32 -37 114 C-36.67 113.01 -36.34 112.02 -36 111 C-33.9375 110.3125 -33.9375 110.3125 -32 110 C-35.87684087 108.80712589 -38.91621923 108 -43 108 Z M-31 112 C-30.34 113.32 -29.68 114.64 -29 116 C-28.01 115.67 -27.02 115.34 -26 115 C-27.37485532 113.45833358 -27.37485532 113.45833358 -29 112 C-29.66 112 -30.32 112 -31 112 Z M213 133 C212.34 134.32 211.68 135.64 211 137 C212.32 137.33 213.64 137.66 215 138 C214.67 136.68 214.34 135.36 214 134 C215.65 134.33 217.3 134.66 219 135 C219 134.34 219 133.68 219 133 C217.02 133 215.04 133 213 133 Z M-33 148 C-32.34 149.65 -31.68 151.3 -31 153 C-30.01 152.67 -29.02 152.34 -28 152 C-28 151.01 -28 150.02 -28 149 C-29.65 148.67 -31.3 148.34 -33 148 Z M-33 152 C-35.60931266 152.89363605 -35.60931266 152.89363605 -38 154 C-36.15274948 154.69159401 -36.15274948 154.69159401 -34 155 C-33.01 154.34 -32.02 153.68 -31 153 C-31.66 152.67 -32.32 152.34 -33 152 Z M-26 155 C-26 155.66 -26 156.32 -26 157 C-22.535 156.505 -22.535 156.505 -19 156 C-19 155.67 -19 155.34 -19 155 C-21.31 155 -23.62 155 -26 155 Z M-19 156 C-18.01 156.99 -17.02 157.98 -16 159 C-15.01 158.34 -14.02 157.68 -13 157 C-15.97 156.505 -15.97 156.505 -19 156 Z M-1 156 C0 158 0 158 0 158 Z M-31 161 C-25.40324584 165.92514366 -19.10090633 166.24915461 -12 166 C-15.26190257 163.82539828 -17.69451228 163.22352091 -21.5 162.375 C-22.6446875 162.11460937 -23.789375 161.85421875 -24.96875 161.5859375 C-27.97635255 160.90510707 -27.97635255 160.90510707 -31 161 Z M-10 160 C-10.99 160.66 -11.98 161.32 -13 162 C-10.69 162 -8.38 162 -6 162 C-7.32 161.34 -8.64 160.68 -10 160 Z M180 162 C180 163.98 180 165.96 180 168 C180.33 168 180.66 168 181 168 C181 166.02 181 164.04 181 162 C180.67 162 180.34 162 180 162 Z M182 163 C182 163.66 182 164.32 182 165 C182.66 165 183.32 165 184 165 C184.33 165.99 184.66 166.98 185 168 C185.66 167.01 186.32 166.02 187 165 C187.680625 164.835 188.36125 164.67 189.0625 164.5 C189.701875 164.335 190.34125 164.17 191 164 C191.33 163.01 191.66 162.02 192 161 C188.09567131 161 185.61973402 161.68373308 182 163 Z M205.9375 170.8125 C204.81891602 171.20405273 204.81891602 171.20405273 203.67773438 171.60351562 C201.74977646 172.31270995 199.86970246 173.14900586 198 174 C197.67 174.99 197.34 175.98 197 177 C199.10304477 177.1080023 201.20766909 177.18558987 203.3125 177.25 C204.48425781 177.29640625 205.65601563 177.3428125 206.86328125 177.390625 C210.07872872 177.33362413 210.07872872 177.33362413 211.78125 175.0625 C212.1834375 174.381875 212.585625 173.70125 213 173 C215.1875 171.75 215.1875 171.75 217 171 C216.67 170.01 216.34 169.02 216 168 C212.4681488 168 209.2210197 169.60578511 205.9375 170.8125 Z M61 178 C64.38209765 180.25473176 66.50705432 180.52740931 70.5 181.0625 C73.83310259 181.51667276 76.80706535 181.93568845 80 183 C80.33 183.66 80.66 184.32 81 185 C81.99 183.35 82.98 181.7 84 180 C80.9182841 176.9182841 73.28898628 177.01421244 69.1875 176.8125 C66.35314569 176.97922672 63.75554094 177.33199007 61 178 Z M106 180 C106 180.66 106 181.32 106 182 C106.99 181.67 107.98 181.34 109 181 C108.01 180.67 107.02 180.34 106 180 Z M109 183 C109.33 183.99 109.66 184.98 110 186 C109.47792969 185.79503906 108.95585937 185.59007812 108.41796875 185.37890625 C102.29251368 183.13683951 96.49617989 182.35212938 90 182 C88.9570127 186.95996806 88.9570127 186.95996806 89 192 C90.485 192.99 90.485 192.99 92 194 C92 192.02 92 190.04 92 188 C93.9375 188.375 93.9375 188.375 96 189 C96.33 189.66 96.66 190.32 97 191 C98.670625 190.7834375 98.670625 190.7834375 100.375 190.5625 C105.24126788 189.95203629 110.11846586 189.47014775 115 189 C115.20970559 184.85906302 115.20970559 184.85906302 114 181 C111.67642489 180.81509993 111.67642489 180.81509993 109 183 Z M121 187 C123.53605069 189.53605069 125.46876556 189.79250373 128.9375 190.625 C129.99839844 190.88539063 131.05929688 191.14578125 132.15234375 191.4140625 C135.00518806 192.10076959 135.00518806 192.10076959 138 192 C137.67 190.68 137.34 189.36 137 188 C135.845 188.020625 134.69 188.04125 133.5 188.0625 C129.25649453 188.07007769 125.19823356 187.59974765 121 187 Z M17 191 C21 192 21 192 21 192 Z " fill="#FBF5EE" transform="translate(87,29)"/>
<path d="M0 0 C2 1 4 2 6 3 C6 3.66 6 4.32 6 5 C5.34 5.474375 4.68 5.94875 4 6.4375 C3.01 7.2109375 3.01 7.2109375 2 8 C2 8.99 2 9.98 2 11 C2.83144531 11.39832031 3.66289062 11.79664063 4.51953125 12.20703125 C5.60621094 12.73683594 6.69289063 13.26664063 7.8125 13.8125 C9.43091797 14.59560547 9.43091797 14.59560547 11.08203125 15.39453125 C13.57108533 16.76401081 15.26722352 17.78083012 17 20 C17 20.66 17 21.32 17 22 C14.03 21.67 11.06 21.34 8 21 C8.78375 21.5775 9.5675 22.155 10.375 22.75 C12.85984748 24.87986927 13.70265139 26.11430871 15 29 C1.60844268 26.37732112 1.60844268 26.37732112 -4 22 C-5.98507948 20.97069953 -7.98114251 19.96136071 -10 19 C-9.67 17.68 -9.34 16.36 -9 15 C-9.66 14.67 -10.32 14.34 -11 14 C-11 13.34 -11 12.68 -11 12 C-8.36 11.67 -5.72 11.34 -3 11 C-3.33 10.01 -3.66 9.02 -4 8 C-4.66 7.67 -5.32 7.34 -6 7 C-4.60667426 3.63279613 -3.0210714 2.0140476 0 0 Z " fill="#FBF4EE" transform="translate(21,172)"/>
<path d="M0 0 C-1 3 -1 3 -3.04296875 4.67578125 C-6.8430983 6.37755657 -10.23829643 6.32949637 -14.3125 6.1875 C-15.05306641 6.17396484 -15.79363281 6.16042969 -16.55664062 6.14648438 C-18.37141075 6.11135979 -20.18580288 6.05755972 -22 6 C-21.67 5.01 -21.34 4.02 -21 3 C-19.25 2.33984375 -19.25 2.33984375 -17 1.9375 C-16.19304687 1.78539062 -15.38609375 1.63328125 -14.5546875 1.4765625 C-13.29011719 1.24066406 -13.29011719 1.24066406 -12 1 C-9.64618886 0.43183869 -7.29491728 -0.14517293 -4.9453125 -0.73046875 C-3 -1 -3 -1 0 0 Z " fill="#FBF4ED" transform="translate(329,50)"/>
<path d="M0 0 C1.05767578 0.42925781 1.05767578 0.42925781 2.13671875 0.8671875 C5.01205232 2.00476831 7.90452186 3.07392356 10.8125 4.125 C11.78832031 4.47820313 12.76414062 4.83140625 13.76953125 5.1953125 C14.87361328 5.59363281 14.87361328 5.59363281 16 6 C15.67 6.66 15.34 7.32 15 8 C12.67624308 8.39460023 10.3406065 8.72230092 8 9 C6.66082739 9.30903983 5.32346746 9.62942911 4 10 C0 4.5 0 4.5 0 0 Z " fill="#FBF4ED" transform="translate(64,25)"/>
<path d="M0 0 C7.11341265 -0.45164525 11.71546794 0.67202085 18 4 C18 4.99 18 5.98 18 7 C13.68068613 6.38388165 9.74791225 5.35761422 5.625 3.9375 C4.56539063 3.57527344 3.50578125 3.21304688 2.4140625 2.83984375 C1.61742188 2.56269531 0.82078125 2.28554687 0 2 C0 1.34 0 0.68 0 0 Z " fill="#FBF4ED" transform="translate(74,221)"/>
<path d="M0 0 C3.46941546 0.45822468 6.67395049 0.89131683 10 2 C10 2.99 10 3.98 10 5 C8.741875 5.04125 7.48375 5.0825 6.1875 5.125 C5.47980469 5.14820313 4.77210938 5.17140625 4.04296875 5.1953125 C2 5 2 5 -1 3 C-0.67 2.01 -0.34 1.02 0 0 Z " fill="#FBF5EE" transform="translate(242,42)"/>
<path d="M0 0 C1.65 0.33 3.3 0.66 5 1 C5 3.31 5 5.62 5 8 C2.69 7.34 0.38 6.68 -2 6 C-2 5.34 -2 4.68 -2 4 C-1.34 4 -0.68 4 0 4 C0 2.68 0 1.36 0 0 Z " fill="#FAF2EC" transform="translate(281,43)"/>
<path d="M0 0 C0.99 0 1.98 0 3 0 C3.66 1.98 4.32 3.96 5 6 C3.02 6 1.04 6 -1 6 C-1.33 5.01 -1.66 4.02 -2 3 C-1.34 2.01 -0.68 1.02 0 0 Z " fill="#F9F5ED" transform="translate(342,60)"/>
<path d="M0 0 C4.54805635 -0.17835515 7.8794254 0.00214565 12 2 C12 2.66 12 3.32 12 4 C10.56138706 3.91253716 9.12402492 3.80434652 7.6875 3.6875 C6.88699219 3.62949219 6.08648437 3.57148438 5.26171875 3.51171875 C2.63727666 2.91793306 1.69179328 2.04219706 0 0 Z " fill="#FAF3EE" transform="translate(304,184)"/>
<path d="M0 0 C-1.65 1.65 -3.3 3.3 -5 5 C-7 3.625 -7 3.625 -9 2 C-9 1.34 -9 0.68 -9 0 C-2.25 -1.125 -2.25 -1.125 0 0 Z " fill="#FBF5EE" transform="translate(48,100)"/>
<path d="M0 0 C1.43836751 0.11458693 2.87570966 0.24209116 4.3125 0.375 C5.51326172 0.47941406 5.51326172 0.47941406 6.73828125 0.5859375 C9 1 9 1 12 3 C8.70303895 4.09898702 7.59505097 3.87124444 4.3125 3.0625 C3.10013672 2.77052734 3.10013672 2.77052734 1.86328125 2.47265625 C0.94095703 2.23869141 0.94095703 2.23869141 0 2 C0 1.34 0 0.68 0 0 Z " fill="#FBF4ED" transform="translate(232,45)"/>
<path d="M0 0 C1.98 0 3.96 0 6 0 C6.66 1.32 7.32 2.64 8 4 C2.25 3.125 2.25 3.125 0 2 C0 1.34 0 0.68 0 0 Z " fill="#FAF3ED" transform="translate(230,244)"/>
<path d="M0 0 C1.64767247 0.28109113 3.29313145 0.57518526 4.9375 0.875 C5.85402344 1.03742187 6.77054688 1.19984375 7.71484375 1.3671875 C8.46894531 1.57601562 9.22304687 1.78484375 10 2 C10.33 2.66 10.66 3.32 11 4 C7.7 3.67 4.4 3.34 1 3 C0.67 2.01 0.34 1.02 0 0 Z " fill="#FBF3EC" transform="translate(168,40)"/>
<path d="M0 0 C6.27 0 12.54 0 19 0 C19 0.33 19 0.66 19 1 C12.73 1 6.46 1 0 1 C0 0.67 0 0.34 0 0 Z " fill="#FCF4F1" transform="translate(256,48)"/>
<path d="M0 0 C1.98 0 3.96 0 6 0 C6 0.99 6 1.98 6 3 C4.02 3 2.04 3 0 3 C0 2.01 0 1.02 0 0 Z " fill="#FBF3EC" transform="translate(125,234)"/>
<path d="M0 0 C2.375 -0.1875 2.375 -0.1875 5 0 C5.66 0.99 6.32 1.98 7 3 C4.69 3 2.38 3 0 3 C0 2.01 0 1.02 0 0 Z " fill="#F9F5EE" transform="translate(271,231)"/>
<path d="M0 0 C0.99 0.33 1.98 0.66 3 1 C2.01 1.495 2.01 1.495 1 2 C3.97 2.33 6.94 2.66 10 3 C10 3.33 10 3.66 10 4 C6.04 4 2.08 4 -2 4 C-1.34 2.68 -0.68 1.36 0 0 Z " fill="#FBF5EE" transform="translate(286,185)"/>
<path d="M0 0 C3.68754757 0.49831724 5.60490662 1.10067643 8 4 C5.6875 4.25 5.6875 4.25 3 4 C1.1875 2 1.1875 2 0 0 Z " fill="#F9F2ED" transform="translate(336,199)"/>
<path d="M0 0 C1.65 0.33 3.3 0.66 5 1 C5 1.66 5 2.32 5 3 C3.02 3 1.04 3 -1 3 C-0.67 2.01 -0.34 1.02 0 0 Z " fill="#FBF4ED" transform="translate(345,118)"/>
<path d="M0 0 C6.93 0.495 6.93 0.495 14 1 C14 1.33 14 1.66 14 2 C9.38 2 4.76 2 0 2 C0 1.34 0 0.68 0 0 Z " fill="#FBF4EC" transform="translate(303,56)"/>
<path d="M0 0 C2.97 0.495 2.97 0.495 6 1 C6 1.66 6 2.32 6 3 C3.69 2.67 1.38 2.34 -1 2 C-0.67 1.34 -0.34 0.68 0 0 Z " fill="#FAF4ED" transform="translate(185,36)"/>
<path d="M0 0 C6.625 -0.25 6.625 -0.25 10 2 C6.7 1.67 3.4 1.34 0 1 C0 0.67 0 0.34 0 0 Z " fill="#FCF4EE" transform="translate(153,207)"/>
<path d="M0 0 C3.625 0.375 3.625 0.375 7 1 C7 1.33 7 1.66 7 2 C4.03 2 1.06 2 -2 2 C-1.34 1.34 -0.68 0.68 0 0 Z " fill="#FBF5ED" transform="translate(76,218)"/>
<path d="M0 0 C2.475 0.495 2.475 0.495 5 1 C5 1.66 5 2.32 5 3 C3.35 2.67 1.7 2.34 0 2 C0 1.34 0 0.68 0 0 Z " fill="#FBF3EE" transform="translate(69,77)"/>
<path d="M0 0 C2.475 0.495 2.475 0.495 5 1 C5 1.66 5 2.32 5 3 C3.35 2.67 1.7 2.34 0 2 C0 1.34 0 0.68 0 0 Z " fill="#F7F5EF" transform="translate(49,64)"/>
<path d="M0 0 C1.98 0 3.96 0 6 0 C6 0.66 6 1.32 6 2 C4.02 2 2.04 2 0 2 C0 1.34 0 0.68 0 0 Z " fill="#FBF3ED" transform="translate(120,33)"/>
<path d="M0 0 C2.475 0.495 2.475 0.495 5 1 C5 1.66 5 2.32 5 3 C3.35 2.67 1.7 2.34 0 2 C0 1.34 0 0.68 0 0 Z " fill="#FBF3ED" transform="translate(255,235)"/>
<path d="M0 0 C3.375 -0.125 3.375 -0.125 7 0 C7.66 0.66 8.32 1.32 9 2 C6.03 1.67 3.06 1.34 0 1 C0 0.67 0 0.34 0 0 Z " fill="#FBF4ED" transform="translate(293,185)"/>
<path d="M0 0 C2.64 0.33 5.28 0.66 8 1 C8 1.33 8 1.66 8 2 C5.69 2 3.38 2 1 2 C0.67 1.34 0.34 0.68 0 0 Z " fill="#FBF4ED" transform="translate(230,241)"/>
<path d="M0 0 C2.475 0.99 2.475 0.99 5 2 C5 2.66 5 3.32 5 4 C1.125 2.25 1.125 2.25 0 0 Z " fill="#FAF3ED" transform="translate(33,195)"/>
<path d="M0 0 C3.3 0 6.6 0 10 0 C10 0.33 10 0.66 10 1 C6.7 1 3.4 1 0 1 C0 0.67 0 0.34 0 0 Z " fill="#FAF4ED" transform="translate(21,162)"/>
<path d="M0 0 C1.98 0.99 1.98 0.99 4 2 C4 2.66 4 3.32 4 4 C2.68 3.67 1.36 3.34 0 3 C0 2.01 0 1.02 0 0 Z " fill="#FAF4ED" transform="translate(48,86)"/>
<path d="M0 0 C1.98 0 3.96 0 6 0 C6 0.99 6 1.98 6 3 C4.02 2.34 2.04 1.68 0 1 C0 0.67 0 0.34 0 0 Z " fill="#FBF4ED" transform="translate(72,34)"/>
<path d="M0 0 C1.65 0 3.3 0 5 0 C5 0.66 5 1.32 5 2 C3.35 1.67 1.7 1.34 0 1 C0 0.67 0 0.34 0 0 Z " fill="#F9F2EC" transform="translate(132,235)"/>
<path d="M0 0 C2.31 0.33 4.62 0.66 7 1 C5.02 1.99 5.02 1.99 3 3 C2.01 2.01 1.02 1.02 0 0 Z " fill="#FCF5EE" transform="translate(35,188)"/>
<path d="M0 0 C2.31 0.33 4.62 0.66 7 1 C5.02 1.99 5.02 1.99 3 3 C2.01 2.01 1.02 1.02 0 0 Z " fill="#FCF5EE" transform="translate(305,187)"/>
<path d="M0 0 C0 0.33 0 0.66 0 1 C-2.31 1 -4.62 1 -7 1 C-3.375 -1.125 -3.375 -1.125 0 0 Z " fill="#FBF4ED" transform="translate(50,177)"/>
<path d="M0 0 C0.33 0.99 0.66 1.98 1 3 C0.01 3.33 -0.98 3.66 -2 4 C-2 3.01 -2 2.02 -2 1 C-1.34 0.67 -0.68 0.34 0 0 Z " fill="#F9F2EE" transform="translate(49,76)"/>
<path d="M0 0 C1.32 0 2.64 0 4 0 C4 0.66 4 1.32 4 2 C2.68 2 1.36 2 0 2 C0 1.34 0 0.68 0 0 Z " fill="#F9F4ED" transform="translate(244,248)"/>
<path d="M0 0 C1.32 0 2.64 0 4 0 C4 0.66 4 1.32 4 2 C2.68 2 1.36 2 0 2 C0 1.34 0 0.68 0 0 Z " fill="#FAF1EF" transform="translate(354,115)"/>
<path d="M0 0 C2.31 0 4.62 0 7 0 C7 0.33 7 0.66 7 1 C4.69 1 2.38 1 0 1 C0 0.67 0 0.34 0 0 Z " fill="#FBF4EE" transform="translate(139,235)"/>
<path d="M0 0 C2.31 0 4.62 0 7 0 C7 0.33 7 0.66 7 1 C4.69 1 2.38 1 0 1 C0 0.67 0 0.34 0 0 Z " fill="#FBF4EE" transform="translate(111,228)"/>
<path d="M0 0 C0.33 0 0.66 0 1 0 C1 1.65 1 3.3 1 5 C0.01 4.67 -0.98 4.34 -2 4 C-1.34 4 -0.68 4 0 4 C0 2.68 0 1.36 0 0 Z " fill="#FBF5ED" transform="translate(200,212)"/>
<path d="M0 0 C2.31 0 4.62 0 7 0 C7 0.33 7 0.66 7 1 C4.69 1 2.38 1 0 1 C0 0.67 0 0.34 0 0 Z " fill="#FBF6EE" transform="translate(181,213)"/>
<path d="M0 0 C1.98 0 3.96 0 6 0 C4.02 0.99 4.02 0.99 2 2 C1.34 1.34 0.68 0.68 0 0 Z " fill="#FBF5EE" transform="translate(164,209)"/>
<path d="M0 0 C2.31 0 4.62 0 7 0 C7 0.33 7 0.66 7 1 C4.69 1 2.38 1 0 1 C0 0.67 0 0.34 0 0 Z " fill="#FBF5ED" transform="translate(32,124)"/>
<path d="M0 0 C0.66 0 1.32 0 2 0 C2.33 0.99 2.66 1.98 3 3 C2.01 3 1.02 3 0 3 C0 2.01 0 1.02 0 0 Z " fill="#FAF4EE" transform="translate(73,74)"/>
<path d="M0 0 C2.31 0 4.62 0 7 0 C7 0.33 7 0.66 7 1 C4.69 1 2.38 1 0 1 C0 0.67 0 0.34 0 0 Z " fill="#FCF6F1" transform="translate(153,47)"/>
<path d="M0 0 C1.65 0.33 3.3 0.66 5 1 C5 1.33 5 1.66 5 2 C3.02 2 1.04 2 -1 2 C-0.67 1.34 -0.34 0.68 0 0 Z " fill="#FCF5EF" transform="translate(121,36)"/>
<path d="M0 0 C2.31 0 4.62 0 7 0 C7 0.33 7 0.66 7 1 C4.69 1 2.38 1 0 1 C0 0.67 0 0.34 0 0 Z " fill="#FBF5EE" transform="translate(135,36)"/>
<path d="M0 0 C1.98 0 3.96 0 6 0 C6 0.33 6 0.66 6 1 C4.02 1 2.04 1 0 1 C0 0.67 0 0.34 0 0 Z " fill="#FCF4EE" transform="translate(168,230)"/>
<path d="M0 0 C0.66 0.33 1.32 0.66 2 1 C0.35 1.33 -1.3 1.66 -3 2 C-2.01 1.34 -1.02 0.68 0 0 Z " fill="#FCF5ED" transform="translate(191,215)"/>
<path d="M0 0 C0.99 0.66 1.98 1.32 3 2 C1.35 2 -0.3 2 -2 2 C-1.34 1.34 -0.68 0.68 0 0 Z " fill="#FBF7EE" transform="translate(34,136)"/>
<path d="M0 0 C0.33 0.99 0.66 1.98 1 3 C-0.32 2.67 -1.64 2.34 -3 2 C-2.01 2 -1.02 2 0 2 C0 1.34 0 0.68 0 0 Z " fill="#FBF4ED" transform="translate(50,131)"/>
<path d="M0 0 C0.99 0 1.98 0 3 0 C3 0.66 3 1.32 3 2 C2.01 2 1.02 2 0 2 C0 1.34 0 0.68 0 0 Z " fill="#FCF4ED" transform="translate(354,82)"/>
<path d="M0 0 C0.33 0.99 0.66 1.98 1 3 C0.01 3 -0.98 3 -2 3 C-1.34 2.01 -0.68 1.02 0 0 Z " fill="#FCF6EE" transform="translate(333,71)"/>
<path d="M0 0 C1.98 0 3.96 0 6 0 C6 0.33 6 0.66 6 1 C4.02 1 2.04 1 0 1 C0 0.67 0 0.34 0 0 Z " fill="#FCF6EF" transform="translate(226,50)"/>
<path d="M0 0 C1.65 0 3.3 0 5 0 C5 0.33 5 0.66 5 1 C3.35 1 1.7 1 0 1 C0 0.67 0 0.34 0 0 Z " fill="#FBF4EC" transform="translate(125,232)"/>
<path d="M0 0 C1.65 0 3.3 0 5 0 C5 0.33 5 0.66 5 1 C3.35 1 1.7 1 0 1 C0 0.67 0 0.34 0 0 Z " fill="#FBF5EE" transform="translate(151,229)"/>
<path d="M0 0 C1.65 0 3.3 0 5 0 C5 0.33 5 0.66 5 1 C3.35 1 1.7 1 0 1 C0 0.67 0 0.34 0 0 Z " fill="#FBF5EF" transform="translate(106,227)"/>
<path d="M0 0 C1.485 0.99 1.485 0.99 3 2 C2.01 2 1.02 2 0 2 C0 1.34 0 0.68 0 0 Z " fill="#FBF4EE" transform="translate(91,222)"/>
<path d="M0 0 C1.65 0 3.3 0 5 0 C5 0.33 5 0.66 5 1 C3.35 1 1.7 1 0 1 C0 0.67 0 0.34 0 0 Z " fill="#FBF4EE" transform="translate(254,217)"/>
<path d="M0 0 C1.65 0 3.3 0 5 0 C5 0.33 5 0.66 5 1 C3.35 1 1.7 1 0 1 C0 0.67 0 0.34 0 0 Z " fill="#FBF4ED" transform="translate(245,217)"/>
<path d="M0 0 C1.65 0 3.3 0 5 0 C5 0.33 5 0.66 5 1 C3.35 1 1.7 1 0 1 C0 0.67 0 0.34 0 0 Z " fill="#FBF3EE" transform="translate(290,213)"/>
<path d="M0 0 C1.32 0.33 2.64 0.66 4 1 C3.01 1.33 2.02 1.66 1 2 C0.67 1.34 0.34 0.68 0 0 Z " fill="#FBF5EE" transform="translate(270,192)"/>
<path d="M0 0 C1.32 0.33 2.64 0.66 4 1 C3.01 1.495 3.01 1.495 2 2 C1.34 1.34 0.68 0.68 0 0 Z " fill="#FBF6EE" transform="translate(43,190)"/>
<path d="M0 0 C1.65 0 3.3 0 5 0 C5 0.33 5 0.66 5 1 C3.35 1 1.7 1 0 1 C0 0.67 0 0.34 0 0 Z " fill="#FBF5EE" transform="translate(305,182)"/>
<path d="M0 0 C0.66 0.99 1.32 1.98 2 3 C1.01 2.67 0.02 2.34 -1 2 C-0.67 1.34 -0.34 0.68 0 0 Z " fill="#FBF4ED" transform="translate(16,180)"/>
<path d="M0 0 C1.65 0 3.3 0 5 0 C5 0.33 5 0.66 5 1 C3.35 1 1.7 1 0 1 C0 0.67 0 0.34 0 0 Z " fill="#FBF6EE" transform="translate(307,169)"/>
<path d="M0 0 C1.65 0 3.3 0 5 0 C5 0.33 5 0.66 5 1 C3.35 1 1.7 1 0 1 C0 0.67 0 0.34 0 0 Z " fill="#FCF6EF" transform="translate(21,136)"/>
<path d="M0 0 C0.66 0.66 1.32 1.32 2 2 C1.01 2 0.02 2 -1 2 C-0.67 1.34 -0.34 0.68 0 0 Z " fill="#FCF5F2" transform="translate(29,127)"/>
<path d="M0 0 C1.65 0 3.3 0 5 0 C5 0.33 5 0.66 5 1 C3.35 1 1.7 1 0 1 C0 0.67 0 0.34 0 0 Z " fill="#FBF5EE" transform="translate(340,104)"/>
<path d="M0 0 C0.66 0.99 1.32 1.98 2 3 C1.01 2.67 0.02 2.34 -1 2 C-0.67 1.34 -0.34 0.68 0 0 Z " fill="#FAF5ED" transform="translate(55,100)"/>
<path d="M0 0 C1.65 0 3.3 0 5 0 C5 0.33 5 0.66 5 1 C3.35 1 1.7 1 0 1 C0 0.67 0 0.34 0 0 Z " fill="#FCF5EE" transform="translate(40,98)"/>
<path d="M0 0 C1.65 0 3.3 0 5 0 C5 0.33 5 0.66 5 1 C3.35 1 1.7 1 0 1 C0 0.67 0 0.34 0 0 Z " fill="#FBF5ED" transform="translate(183,56)"/>
<path d="M0 0 C1.65 0 3.3 0 5 0 C5 0.33 5 0.66 5 1 C3.35 1 1.7 1 0 1 C0 0.67 0 0.34 0 0 Z " fill="#FCF7F0" transform="translate(245,50)"/>
<path d="M0 0 C1.65 0 3.3 0 5 0 C5 0.33 5 0.66 5 1 C3.35 1 1.7 1 0 1 C0 0.67 0 0.34 0 0 Z " fill="#FCF6EE" transform="translate(201,48)"/>
<path d="M0 0 C1.65 0 3.3 0 5 0 C5 0.33 5 0.66 5 1 C3.35 1 1.7 1 0 1 C0 0.67 0 0.34 0 0 Z " fill="#FAF4ED" transform="translate(195,43)"/>
<path d="M0 0 C1.65 0 3.3 0 5 0 C5 0.33 5 0.66 5 1 C3.35 1 1.7 1 0 1 C0 0.67 0 0.34 0 0 Z " fill="#FBF4EC" transform="translate(120,31)"/>
<path d="M0 0 C1.65 0 3.3 0 5 0 C5 0.33 5 0.66 5 1 C3.35 1 1.7 1 0 1 C0 0.67 0 0.34 0 0 Z " fill="#FCF5EF" transform="translate(81,29)"/>
<path d="M0 0 C0.66 0 1.32 0 2 0 C2 0.66 2 1.32 2 2 C1.34 2 0.68 2 0 2 C0 1.34 0 0.68 0 0 Z " fill="#FAF4EE" transform="translate(98,245)"/>
<path d="M0 0 C0.99 0.33 1.98 0.66 3 1 C2.01 1.33 1.02 1.66 0 2 C0 1.34 0 0.68 0 0 Z " fill="#FBF5EE" transform="translate(245,235)"/>
<path d="M0 0 C4 1 4 1 4 1 Z " fill="#FBF5EE" transform="translate(121,229)"/>
<path d="M0 0 C4 1 4 1 4 1 Z " fill="#FBF4EE" transform="translate(102,226)"/>
<path d="M0 0 C4 1 4 1 4 1 Z " fill="#FBF6EE" transform="translate(240,222)"/>
<path d="M0 0 C4 1 4 1 4 1 Z " fill="#FCF4EE" transform="translate(259,218)"/>
<path d="M0 0 C0.99 0.33 1.98 0.66 3 1 C2.01 1 1.02 1 0 1 C0 0.67 0 0.34 0 0 Z " fill="#FDF6EE" transform="translate(221,218)"/>
<path d="M0 0 C4 1 4 1 4 1 Z " fill="#FBF5ED" transform="translate(179,215)"/>
<path d="M0 0 C4 1 4 1 4 1 Z " fill="#FBF5EE" transform="translate(298,214)"/>
<path d="M0 0 C4 1 4 1 4 1 Z " fill="#FBF5EE" transform="translate(285,204)"/>
<path d="M0 0 C4 1 4 1 4 1 Z " fill="#FBF4EE" transform="translate(30,201)"/>
<path d="M0 0 C0.33 0.66 0.66 1.32 1 2 C0.01 1.67 -0.98 1.34 -2 1 C-1.34 0.67 -0.68 0.34 0 0 Z " fill="#FCF5EE" transform="translate(302,198)"/>
<path d="M0 0 C4 1 4 1 4 1 Z " fill="#FFF5EE" transform="translate(289,184)"/>
<path d="M0 0 C1 4 1 4 1 4 Z " fill="#FBF6EE" transform="translate(313,161)"/>
<path d="M0 0 C4 1 4 1 4 1 Z " fill="#FBF5EE" transform="translate(316,146)"/>
<path d="M0 0 C4 1 4 1 4 1 Z " fill="#FBF5EF" transform="translate(28,136)"/>
<path d="M0 0 C4 1 4 1 4 1 Z " fill="#FBF7EF" transform="translate(335,127)"/>
<path d="M0 0 C0.66 0 1.32 0 2 0 C2 0.66 2 1.32 2 2 C1.34 2 0.68 2 0 2 C0 1.34 0 0.68 0 0 Z " fill="#F9F4EE" transform="translate(330,106)"/>
<path d="M0 0 C4 1 4 1 4 1 Z " fill="#FBF5EE" transform="translate(333,105)"/>
<path d="M0 0 C0 3 0 3 0 3 Z " fill="#FAF5EE" transform="translate(64,98)"/>
<path d="M0 0 C4 1 4 1 4 1 Z " fill="#FBF4EE" transform="translate(54,78)"/>
<path d="M0 0 C0.99 0.33 1.98 0.66 3 1 C2.01 1.33 1.02 1.66 0 2 C0 1.34 0 0.68 0 0 Z " fill="#FBF5EE" transform="translate(51,77)"/>
<path d="M0 0 C4 1 4 1 4 1 Z " fill="#FBF6EE" transform="translate(98,67)"/>
<path d="M0 0 C4 1 4 1 4 1 Z " fill="#FBF5EE" transform="translate(324,66)"/>
<path d="M0 0 C0.66 0 1.32 0 2 0 C2 0.66 2 1.32 2 2 C1.34 2 0.68 2 0 2 C0 1.34 0 0.68 0 0 Z " fill="#F9F4EC" transform="translate(60,65)"/>
<path d="M0 0 C1 4 1 4 1 4 Z " fill="#FBF4ED" transform="translate(196,55)"/>
<path d="M0 0 C4 1 4 1 4 1 Z " fill="#FBF5ED" transform="translate(188,57)"/>
<path d="M0 0 C4 1 4 1 4 1 Z " fill="#FBF4EE" transform="translate(188,55)"/>
<path d="M0 0 C4 1 4 1 4 1 Z " fill="#FAF4ED" transform="translate(179,55)"/>
<path d="M0 0 C4 1 4 1 4 1 Z " fill="#FCF6F0" transform="translate(216,51)"/>
<path d="M0 0 C4 1 4 1 4 1 Z " fill="#FBF4EC" transform="translate(293,50)"/>
<path d="M0 0 C4 1 4 1 4 1 Z " fill="#FBF4EC" transform="translate(287,50)"/>
<path d="M0 0 C0.66 0.66 1.32 1.32 2 2 C1.01 1.67 0.02 1.34 -1 1 C-0.67 0.67 -0.34 0.34 0 0 Z " fill="#FDF6F2" transform="translate(86,49)"/>
<path d="M0 0 C4 1 4 1 4 1 Z " fill="#FAF4ED" transform="translate(252,47)"/>
<path d="M0 0 C0.33 0.66 0.66 1.32 1 2 C0.01 1.67 -0.98 1.34 -2 1 C-1.34 0.67 -0.68 0.34 0 0 Z " fill="#FBF4EE" transform="translate(239,43)"/>
<path d="M0 0 C4 1 4 1 4 1 Z " fill="#FAF5ED" transform="translate(232,43)"/>
<path d="M0 0 C1.485 0.99 1.485 0.99 3 2 C2.01 2 1.02 2 0 2 C0 1.34 0 0.68 0 0 Z " fill="#FCF7EE" transform="translate(144,42)"/>
<path d="M0 0 C4 1 4 1 4 1 Z " fill="#FBF5EE" transform="translate(128,37)"/>
<path d="M0 0 C4 1 4 1 4 1 Z " fill="#FBF4ED" transform="translate(101,29)"/>
<path d="M0 0 C3 1 3 1 3 1 Z " fill="#FAF4ED" transform="translate(234,249)"/>
<path d="M0 0 C3 1 3 1 3 1 Z " fill="#FCF6EE" transform="translate(212,241)"/>
<path d="M0 0 C3 1 3 1 3 1 Z " fill="#FBF4EE" transform="translate(226,240)"/>
<path d="M0 0 C3 1 3 1 3 1 Z " fill="#FBF3EE" transform="translate(209,240)"/>
<path d="M0 0 C3 1 3 1 3 1 Z " fill="#FAF3ED" transform="translate(257,239)"/>
<path d="" fill="#FEF4EE" transform="translate(0,0)"/>
<path d="" fill="#FAF4EC" transform="translate(0,0)"/>
<path d="M0 0 C3 1 3 1 3 1 Z " fill="#FAF4ED" transform="translate(272,229)"/>
<path d="M0 0 C3 1 3 1 3 1 Z " fill="#FCF5EE" transform="translate(86,228)"/>
<path d="M0 0 C3 1 3 1 3 1 Z " fill="#FCF2EE" transform="translate(98,226)"/>
<path d="M0 0 C3 1 3 1 3 1 Z " fill="#FBF7ED" transform="translate(81,226)"/>
<path d="M0 0 C3 1 3 1 3 1 Z " fill="#FBF5EE" transform="translate(86,221)"/>
<path d="M0 0 C3 1 3 1 3 1 Z " fill="#FCF7EE" transform="translate(277,220)"/>
<path d="M0 0 C3 1 3 1 3 1 Z " fill="#FCF5EE" transform="translate(83,220)"/>
<path d="M0 0 C3 1 3 1 3 1 Z " fill="#FAF5EE" transform="translate(266,219)"/>
<path d="M0 0 C3 1 3 1 3 1 Z " fill="#FAF3EF" transform="translate(242,218)"/>
<path d="M0 0 C3 1 3 1 3 1 Z " fill="#FCF5EE" transform="translate(284,215)"/>
<path d="M0 0 C3 1 3 1 3 1 Z " fill="#FBF3ED" transform="translate(47,215)"/>
<path d="M0 0 C3 1 3 1 3 1 Z " fill="#FBF6ED" transform="translate(188,214)"/>
<path d="" fill="#FAF6ED" transform="translate(0,0)"/>
<path d="" fill="#FBF4EE" transform="translate(0,0)"/>
<path d="M0 0 C3 1 3 1 3 1 Z " fill="#FCF5EE" transform="translate(55,211)"/>
<path d="" fill="#FBF4EE" transform="translate(0,0)"/>
<path d="M0 0 C3 1 3 1 3 1 Z " fill="#FBF5EE" transform="translate(340,204)"/>
<path d="M0 0 C3 1 3 1 3 1 Z " fill="#FBF5EE" transform="translate(291,202)"/>
<path d="M0 0 C3 1 3 1 3 1 Z " fill="#FBF4EE" transform="translate(27,200)"/>
<path d="M0 0 C3 1 3 1 3 1 Z " fill="#FAF8EE" transform="translate(14,194)"/>
<path d="M0 0 C3 1 3 1 3 1 Z " fill="#FBF3EE" transform="translate(312,189)"/>
<path d="" fill="#FCF5EE" transform="translate(0,0)"/>
<path d="M0 0 C3 1 3 1 3 1 Z " fill="#FBF5EE" transform="translate(298,178)"/>
<path d="M0 0 C0.66 0.66 1.32 1.32 2 2 C1.34 2 0.68 2 0 2 C0 1.34 0 0.68 0 0 Z " fill="#FDF6EE" transform="translate(41,171)"/>
<path d="M0 0 C3 1 3 1 3 1 Z " fill="#FCF5EF" transform="translate(22,153)"/>
<path d="" fill="#FBF6EE" transform="translate(0,0)"/>
<path d="M0 0 C3 1 3 1 3 1 Z " fill="#FCF5EE" transform="translate(328,142)"/>
<path d="M0 0 C3 1 3 1 3 1 Z " fill="#FCF5ED" transform="translate(342,128)"/>
<path d="M0 0 C3 1 3 1 3 1 Z " fill="#F9F3EC" transform="translate(345,116)"/>
<path d="" fill="#FBF5ED" transform="translate(0,0)"/>
<path d="" fill="#FAF3EC" transform="translate(0,0)"/>
<path d="M0 0 C3 1 3 1 3 1 Z " fill="#FCF5EE" transform="translate(58,97)"/>
<path d="M0 0 C3 1 3 1 3 1 Z " fill="#FBF4ED" transform="translate(58,93)"/>
<path d="" fill="#FBF8EE" transform="translate(0,0)"/>
<path d="M0 0 C0.99 0.495 0.99 0.495 2 1 C1.01 1.495 1.01 1.495 0 2 C0 1.34 0 0.68 0 0 Z " fill="#FCF3EE" transform="translate(341,89)"/>
<path d="M0 0 C3 1 3 1 3 1 Z " fill="#FCF4ED" transform="translate(354,85)"/>
<path d="M0 0 C3 1 3 1 3 1 Z " fill="#FBF6ED" transform="translate(76,74)"/>
<path d="M0 0 C3 1 3 1 3 1 Z " fill="#FBF7EF" transform="translate(84,70)"/>
<path d="M0 0 C3 1 3 1 3 1 Z " fill="#FBF5ED" transform="translate(48,70)"/>
<path d="M0 0 C3 1 3 1 3 1 Z " fill="#FBF6EF" transform="translate(175,54)"/>
<path d="M0 0 C3 1 3 1 3 1 Z " fill="#FBF4ED" transform="translate(199,53)"/>
<path d="M0 0 C3 1 3 1 3 1 Z " fill="#FCF4EE" transform="translate(195,52)"/>
<path d="M0 0 C3 1 3 1 3 1 Z " fill="#FBF5EE" transform="translate(168,52)"/>
<path d="M0 0 C3 1 3 1 3 1 Z " fill="#FCF5EE" transform="translate(311,50)"/>
<path d="M0 0 C0.66 0.66 1.32 1.32 2 2 C1.34 2 0.68 2 0 2 C0 1.34 0 0.68 0 0 Z " fill="#FBF4ED" transform="translate(164,49)"/>
<path d="M0 0 C3 1 3 1 3 1 Z " fill="#FBF5EE" transform="translate(276,49)"/>
<path d="" fill="#FCF5EE" transform="translate(0,0)"/>
<path d="M0 0 C3 1 3 1 3 1 Z " fill="#FBF6EF" transform="translate(323,48)"/>
<path d="M0 0 C3 1 3 1 3 1 Z " fill="#FBF5ED" transform="translate(185,47)"/>
<path d="M0 0 C3 1 3 1 3 1 Z " fill="#FCF4ED" transform="translate(81,47)"/>
<path d="M0 0 C3 1 3 1 3 1 Z " fill="#FBF7EE" transform="translate(78,46)"/>
<path d="M0 0 C3 1 3 1 3 1 Z " fill="#FBF6EE" transform="translate(212,43)"/>
<path d="M0 0 C3 1 3 1 3 1 Z " fill="#FBF5ED" transform="translate(69,41)"/>
<path d="M0 0 C3 1 3 1 3 1 Z " fill="#FBF7EE" transform="translate(242,40)"/>
<path d="M0 0 C3 1 3 1 3 1 Z " fill="#FAF4EC" transform="translate(174,40)"/>
<path d="M0 0 C3 1 3 1 3 1 Z " fill="#FAF3EC" transform="translate(170,39)"/>
<path d="M0 0 C3 1 3 1 3 1 Z " fill="#FBF5EE" transform="translate(96,28)"/>
<path d="M0 0 C3 1 3 1 3 1 Z " fill="#FCF5ED" transform="translate(87,27)"/>
<path d="M0 0 C2 1 2 1 2 1 Z " fill="#FAF5ED" transform="translate(232,248)"/>
<path d="M0 0 C2 1 2 1 2 1 Z " fill="#F9F3EF" transform="translate(98,248)"/>
<path d="M0 0 C2 1 2 1 2 1 Z " fill="#FBF4ED" transform="translate(245,246)"/>
<path d="" fill="#FAF4EE" transform="translate(0,0)"/>
<path d="M0 0 C2 1 2 1 2 1 Z " fill="#FAF4ED" transform="translate(222,244)"/>
<path d="M0 0 C2 1 2 1 2 1 Z " fill="#FAF5ED" transform="translate(220,243)"/>
<path d="M0 0 C2 1 2 1 2 1 Z " fill="#FBF5EE" transform="translate(215,242)"/>
<path d="M0 0 C2 1 2 1 2 1 Z " fill="#FBF5ED" transform="translate(207,239)"/>
<path d="M0 0 C2 1 2 1 2 1 Z " fill="#FBF5EE" transform="translate(128,238)"/>
<path d="M0 0 C2 1 2 1 2 1 Z " fill="#FAF1ED" transform="translate(182,235)"/>
<path d="" fill="#FBF6EE" transform="translate(0,0)"/>
<path d="M0 0 C2 1 2 1 2 1 Z " fill="#FBF4ED" transform="translate(255,233)"/>
<path d="M0 0 C2 1 2 1 2 1 Z " fill="#FBF5ED" transform="translate(134,233)"/>
<path d="" fill="#FDF9EE" transform="translate(0,0)"/>
<path d="" fill="#FDF6EE" transform="translate(0,0)"/>
<path d="M0 0 C2 1 2 1 2 1 Z " fill="#FBF5ED" transform="translate(84,227)"/>
<path d="" fill="#FCF5EE" transform="translate(0,0)"/>
<path d="M0 0 C2 1 2 1 2 1 Z " fill="#FAF7EF" transform="translate(244,223)"/>
<path d="M0 0 C2 1 2 1 2 1 Z " fill="#FBF5EE" transform="translate(272,221)"/>
<path d="" fill="#FCF6EE" transform="translate(0,0)"/>
<path d="M0 0 C2 1 2 1 2 1 Z " fill="#FBF5EE" transform="translate(263,219)"/>
<path d="M0 0 C2 1 2 1 2 1 Z " fill="#FDF2EE" transform="translate(250,218)"/>
<path d="M0 0 C2 1 2 1 2 1 Z " fill="#FAF3EE" transform="translate(240,217)"/>
<path d="M0 0 C2 1 2 1 2 1 Z " fill="#FAF4ED" transform="translate(73,217)"/>
<path d="M0 0 C2 1 2 1 2 1 Z " fill="#FCF5EE" transform="translate(282,216)"/>
<path d="M0 0 C2 1 2 1 2 1 Z " fill="#FCF5EF" transform="translate(193,216)"/>
<path d="M0 0 C2 1 2 1 2 1 Z " fill="#FAF4ED" transform="translate(60,215)"/>
<path d="M0 0 C2 1 2 1 2 1 Z " fill="#FBF4EE" transform="translate(287,214)"/>
<path d="M0 0 C2 1 2 1 2 1 Z " fill="#FCF3EE" transform="translate(66,214)"/>
<path d="M0 0 C2 1 2 1 2 1 Z " fill="#FAF1EE" transform="translate(50,214)"/>
<path d="M0 0 C2 1 2 1 2 1 Z " fill="#FAF5ED" transform="translate(45,214)"/>
<path d="M0 0 C2 1 2 1 2 1 Z " fill="#FAF1EF" transform="translate(302,213)"/>
<path d="M0 0 C2 1 2 1 2 1 Z " fill="#FBF3EE" transform="translate(296,213)"/>
<path d="M0 0 C2 1 2 1 2 1 Z " fill="#FBF4EE" transform="translate(289,203)"/>
<path d="M0 0 C2 1 2 1 2 1 Z " fill="#FBF4EF" transform="translate(34,202)"/>
<path d="M0 0 C2 1 2 1 2 1 Z " fill="#FBF4EF" transform="translate(294,201)"/>
<path d="" fill="#FBF5EE" transform="translate(0,0)"/>
<path d="M0 0 C2 1 2 1 2 1 Z " fill="#FCF6ED" transform="translate(31,194)"/>
<path d="M0 0 C2 1 2 1 2 1 Z " fill="#FAF4ED" transform="translate(29,193)"/>
<path d="M0 0 C2 1 2 1 2 1 Z " fill="#FDF4EE" transform="translate(275,191)"/>
<path d="" fill="#FCF6EF" transform="translate(0,0)"/>
<path d="M0 0 C2 1 2 1 2 1 Z " fill="#FDF8EE" transform="translate(30,185)"/>
<path d="M0 0 C2 1 2 1 2 1 Z " fill="#FBF5EE" transform="translate(28,184)"/>
<path d="M0 0 C2 1 2 1 2 1 Z " fill="#FBF6EF" transform="translate(312,183)"/>
<path d="M0 0 C2 1 2 1 2 1 Z " fill="#FBF6EF" transform="translate(26,183)"/>
<path d="" fill="#FBF7EE" transform="translate(0,0)"/>
<path d="M0 0 C2 1 2 1 2 1 Z " fill="#FDF8EE" transform="translate(39,182)"/>
<path d="M0 0 C2 1 2 1 2 1 Z " fill="#FBF6EF" transform="translate(303,178)"/>
<path d="M0 0 C2 1 2 1 2 1 Z " fill="#FBF6EE" transform="translate(308,175)"/>
<path d="M0 0 C2 1 2 1 2 1 Z " fill="#FCF4EE" transform="translate(45,175)"/>
<path d="" fill="#FBF4EF" transform="translate(0,0)"/>
<path d="M0 0 C2 1 2 1 2 1 Z " fill="#F9F9EC" transform="translate(31,163)"/>
<path d="M0 0 C2 1 2 1 2 1 Z " fill="#FCF5EF" transform="translate(310,158)"/>
<path d="" fill="#FAF3EC" transform="translate(0,0)"/>
<path d="M0 0 C2 1 2 1 2 1 Z " fill="#FAF9EE" transform="translate(25,151)"/>
<path d="M0 0 C2 1 2 1 2 1 Z " fill="#FBF5EF" transform="translate(309,150)"/>
<path d="M0 0 C2 1 2 1 2 1 Z " fill="#FBF4EE" transform="translate(314,147)"/>
<path d="M0 0 C2 1 2 1 2 1 Z " fill="#FCF5EF" transform="translate(325,143)"/>
<path d="" fill="#F9F6EE" transform="translate(0,0)"/>
<path d="M0 0 C2 1 2 1 2 1 Z " fill="#FCF6EE" transform="translate(48,140)"/>
<path d="M0 0 C2 1 2 1 2 1 Z " fill="#FBF6EE" transform="translate(19,137)"/>
<path d="M0 0 C2 1 2 1 2 1 Z " fill="#F9F2EE" transform="translate(32,135)"/>
<path d="" fill="#FBF5EE" transform="translate(0,0)"/>
<path d="M0 0 C2 1 2 1 2 1 Z " fill="#FCF4ED" transform="translate(45,132)"/>
<path d="" fill="#FBF6EE" transform="translate(0,0)"/>
<path d="M0 0 C2 1 2 1 2 1 Z " fill="#FBFCF4" transform="translate(24,129)"/>
<path d="M0 0 C2 1 2 1 2 1 Z " fill="#FBF4EB" transform="translate(26,128)"/>
<path d="M0 0 C2 1 2 1 2 1 Z " fill="#F8F7EC" transform="translate(339,119)"/>
<path d="" fill="#FBF5ED" transform="translate(0,0)"/>
<path d="" fill="#FDF7EE" transform="translate(0,0)"/>
<path d="M0 0 C2 1 2 1 2 1 Z " fill="#FBF4ED" transform="translate(354,113)"/>
<path d="M0 0 C2 1 2 1 2 1 Z " fill="#FDF6EE" transform="translate(342,111)"/>
<path d="M0 0 C2 1 2 1 2 1 Z " fill="#FDF9EF" transform="translate(339,110)"/>
<path d="M0 0 C2 1 2 1 2 1 Z " fill="#FCF6ED" transform="translate(335,109)"/>
<path d="" fill="#FDF5EE" transform="translate(0,0)"/>
<path d="M0 0 C2 1 2 1 2 1 Z " fill="#FBF4EE" transform="translate(343,96)"/>
<path d="M0 0 C2 1 2 1 2 1 Z " fill="#FCF4EE" transform="translate(63,95)"/>
<path d="M0 0 C2 1 2 1 2 1 Z " fill="#FAF3ED" transform="translate(61,94)"/>
<path d="" fill="#FBF3ED" transform="translate(0,0)"/>
<path d="" fill="#FBF6EE" transform="translate(0,0)"/>
<path d="M0 0 C2 1 2 1 2 1 Z " fill="#FDFAEF" transform="translate(344,81)"/>
<path d="M0 0 C2 1 2 1 2 1 Z " fill="#FCF4EE" transform="translate(355,80)"/>
<path d="" fill="#FCF9EF" transform="translate(0,0)"/>
<path d="" fill="#F5F8EB" transform="translate(0,0)"/>
<path d="M0 0 C2 1 2 1 2 1 Z " fill="#FDF8EE" transform="translate(60,74)"/>
<path d="M0 0 C2 1 2 1 2 1 Z " fill="#FCF6EF" transform="translate(58,73)"/>
<path d="M0 0 C2 1 2 1 2 1 Z " fill="#FBF5EE" transform="translate(73,72)"/>
<path d="M0 0 C2 1 2 1 2 1 Z " fill="#FCF4EE" transform="translate(56,72)"/>
<path d="M0 0 C2 1 2 1 2 1 Z " fill="#FCF4EF" transform="translate(53,71)"/>
<path d="M0 0 C2 1 2 1 2 1 Z " fill="#FBF5EE" transform="translate(318,69)"/>
<path d="M0 0 C2 1 2 1 2 1 Z " fill="#FAF5EC" transform="translate(51,68)"/>
<path d="M0 0 C2 1 2 1 2 1 Z " fill="#FCF5EE" transform="translate(49,67)"/>
<path d="M0 0 C2 1 2 1 2 1 Z " fill="#FBF6EE" transform="translate(96,66)"/>
<path d="M0 0 C2 1 2 1 2 1 Z " fill="#FDF6EE" transform="translate(93,65)"/>
<path d="" fill="#FAF7EE" transform="translate(0,0)"/>
<path d="M0 0 C2 1 2 1 2 1 Z " fill="#FCF5EE" transform="translate(90,64)"/>
<path d="M0 0 C2 1 2 1 2 1 Z " fill="#FAF2EF" transform="translate(88,63)"/>
<path d="M0 0 C2 1 2 1 2 1 Z " fill="#FCF4EF" transform="translate(186,54)"/>
<path d="M0 0 C2 1 2 1 2 1 Z " fill="#FCF5EE" transform="translate(171,53)"/>
<path d="M0 0 C2 1 2 1 2 1 Z " fill="#FBF4EE" transform="translate(308,51)"/>
<path d="M0 0 C2 1 2 1 2 1 Z " fill="#FDF7EE" transform="translate(166,51)"/>
<path d="M0 0 C2 1 2 1 2 1 Z " fill="#FAF7EE" transform="translate(321,49)"/>
<path d="M0 0 C2 1 2 1 2 1 Z " fill="#FCF4ED" transform="translate(221,48)"/>
<path d="M0 0 C2 1 2 1 2 1 Z " fill="#FAF4ED" transform="translate(84,48)"/>
<path d="M0 0 C2 1 2 1 2 1 Z " fill="#FBF4EC" transform="translate(326,47)"/>
<path d="" fill="#FCF4EF" transform="translate(0,0)"/>
<path d="M0 0 C2 1 2 1 2 1 Z " fill="#FCF6EF" transform="translate(206,47)"/>
<path d="" fill="#FBF7EE" transform="translate(0,0)"/>
<path d="M0 0 C2 1 2 1 2 1 Z " fill="#FDFAEF" transform="translate(208,46)"/>
<path d="M0 0 C2 1 2 1 2 1 Z " fill="#FBF5ED" transform="translate(188,46)"/>
<path d="M0 0 C2 1 2 1 2 1 Z " fill="#FAF3ED" transform="translate(170,44)"/>
<path d="M0 0 C2 1 2 1 2 1 Z " fill="#FDF7F1" transform="translate(147,44)"/>
<path d="M0 0 C2 1 2 1 2 1 Z " fill="#FBF7F0" transform="translate(249,42)"/>
<path d="M0 0 C2 1 2 1 2 1 Z " fill="#FCF7EE" transform="translate(247,41)"/>
<path d="" fill="#FBF3EC" transform="translate(0,0)"/>
<path d="M0 0 C2 1 2 1 2 1 Z " fill="#FBF3EB" transform="translate(168,38)"/>
<path d="M0 0 C2 1 2 1 2 1 Z " fill="#FDF8ED" transform="translate(188,35)"/>
<path d="M0 0 C2 1 2 1 2 1 Z " fill="#FCF6EF" transform="translate(186,34)"/>
<path d="" fill="#FBF8EE" transform="translate(0,0)"/>
<path d="M0 0 C2 1 2 1 2 1 Z " fill="#FCF6ED" transform="translate(105,30)"/>
<path d="" fill="#FBF5EE" transform="translate(0,0)"/>
<path d="M0 0 C2 1 2 1 2 1 Z " fill="#FBF5ED" transform="translate(71,27)"/>
<path d="" fill="#FCF4EE" transform="translate(0,0)"/>
<path d="M0 0 C2 1 2 1 2 1 Z " fill="#FCF5EE" transform="translate(69,26)"/>
<path d="" fill="#FCF4EB" transform="translate(0,0)"/>
<path d="" fill="#FEF2EB" transform="translate(0,0)"/>
<path d="" fill="#F9F3EE" transform="translate(0,0)"/>
<path d="" fill="#FAF5EC" transform="translate(0,0)"/>
<path d="" fill="#FCFFF2" transform="translate(0,0)"/>
<path d="" fill="#FCF3EF" transform="translate(0,0)"/>
<path d="" fill="#FFF1EF" transform="translate(0,0)"/>
<path d="" fill="#FAF4EE" transform="translate(0,0)"/>
<path d="" fill="#FCF5EE" transform="translate(0,0)"/>
<path d="" fill="#FBF4EE" transform="translate(0,0)"/>
<path d="" fill="#FAF2ED" transform="translate(0,0)"/>
<path d="" fill="#FFF3EB" transform="translate(0,0)"/>
<path d="" fill="#FCF6EE" transform="translate(0,0)"/>
<path d="" fill="#FBF6EE" transform="translate(0,0)"/>
<path d="" fill="#FAF3ED" transform="translate(0,0)"/>
<path d="" fill="#FAF6EF" transform="translate(0,0)"/>
<path d="" fill="#FBF5EE" transform="translate(0,0)"/>
<path d="" fill="#FBF5ED" transform="translate(0,0)"/>
<path d="" fill="#FCF5EF" transform="translate(0,0)"/>
<path d="" fill="#FAF2EF" transform="translate(0,0)"/>
<path d="" fill="#FBF5EF" transform="translate(0,0)"/>
<path d="" fill="#FCF6EF" transform="translate(0,0)"/>
<path d="" fill="#FDF6EE" transform="translate(0,0)"/>
<path d="" fill="#FCF1EF" transform="translate(0,0)"/>
<path d="" fill="#FBF5EE" transform="translate(0,0)"/>
<path d="" fill="#FCF5EE" transform="translate(0,0)"/>
<path d="" fill="#FEF9EE" transform="translate(0,0)"/>
<path d="" fill="#FBF6EE" transform="translate(0,0)"/>
<path d="" fill="#FCF7EE" transform="translate(0,0)"/>
<path d="" fill="#FCF3EE" transform="translate(0,0)"/>
<path d="" fill="#FDF9EE" transform="translate(0,0)"/>
<path d="" fill="#FDF5EF" transform="translate(0,0)"/>
<path d="" fill="#FCF3ED" transform="translate(0,0)"/>
<path d="" fill="#FBF8EE" transform="translate(0,0)"/>
<path d="" fill="#FAF0EA" transform="translate(0,0)"/>
<path d="" fill="#FCF3EF" transform="translate(0,0)"/>
<path d="" fill="#FBF5EE" transform="translate(0,0)"/>
<path d="" fill="#FAF4EF" transform="translate(0,0)"/>
<path d="" fill="#FDF5EE" transform="translate(0,0)"/>
<path d="" fill="#FCF4EE" transform="translate(0,0)"/>
<path d="" fill="#FCF5EE" transform="translate(0,0)"/>
<path d="" fill="#FAF4EC" transform="translate(0,0)"/>
<path d="" fill="#FCF3EE" transform="translate(0,0)"/>
<path d="" fill="#FBF4ED" transform="translate(0,0)"/>
<path d="" fill="#FAF4EE" transform="translate(0,0)"/>
<path d="" fill="#FCF4ED" transform="translate(0,0)"/>
<path d="" fill="#F9F2EF" transform="translate(0,0)"/>
<path d="" fill="#FDF3ED" transform="translate(0,0)"/>
<path d="" fill="#FCF4EF" transform="translate(0,0)"/>
<path d="" fill="#F8F7EF" transform="translate(0,0)"/>
<path d="" fill="#FAF5EF" transform="translate(0,0)"/>
<path d="" fill="#F9F6EF" transform="translate(0,0)"/>
<path d="" fill="#FBF4EF" transform="translate(0,0)"/>
<path d="" fill="#FBF6EF" transform="translate(0,0)"/>
<path d="" fill="#FDF7EE" transform="translate(0,0)"/>
<path d="" fill="#F9F4EF" transform="translate(0,0)"/>
<path d="" fill="#FAF4EF" transform="translate(0,0)"/>
<path d="" fill="#FAF3EF" transform="translate(0,0)"/>
<path d="" fill="#F9F4EF" transform="translate(0,0)"/>
<path d="" fill="#FCF6EE" transform="translate(0,0)"/>
<path d="" fill="#FCF5EF" transform="translate(0,0)"/>
<path d="" fill="#FBF6ED" transform="translate(0,0)"/>
<path d="" fill="#FAF3EB" transform="translate(0,0)"/>
<path d="" fill="#FDF7F0" transform="translate(0,0)"/>
<path d="" fill="#FBF3ED" transform="translate(0,0)"/>
<path d="" fill="#FBF3EF" transform="translate(0,0)"/>
<path d="" fill="#FAF5EE" transform="translate(0,0)"/>
<path d="" fill="#FCF4EE" transform="translate(0,0)"/>
<path d="" fill="#FBF7EF" transform="translate(0,0)"/>
<path d="" fill="#FCF5ED" transform="translate(0,0)"/>
<path d="" fill="#FEF7EF" transform="translate(0,0)"/>
<path d="" fill="#FAF5EE" transform="translate(0,0)"/>
<path d="" fill="#FBF3EF" transform="translate(0,0)"/>
<path d="" fill="#FBF4ED" transform="translate(0,0)"/>
<path d="" fill="#FBF4EB" transform="translate(0,0)"/>
<path d="" fill="#FBF4EE" transform="translate(0,0)"/>
<path d="" fill="#FBF4EB" transform="translate(0,0)"/>
<path d="" fill="#FEF3ED" transform="translate(0,0)"/>
<path d="" fill="#FFFFFF" transform="translate(0,0)"/>
<path d="" fill="#FFFAEF" transform="translate(0,0)"/>
<path d="" fill="#FCF6EE" transform="translate(0,0)"/>
<path d="" fill="#FBF4EF" transform="translate(0,0)"/>
<path d="" fill="#FAF4EF" transform="translate(0,0)"/>
<path d="" fill="#FCF3EC" transform="translate(0,0)"/>
<path d="" fill="#FBF5EE" transform="translate(0,0)"/>
<path d="" fill="#FAF6EF" transform="translate(0,0)"/>
<path d="" fill="#FBF4ED" transform="translate(0,0)"/>
<path d="" fill="#FCF5ED" transform="translate(0,0)"/>
<path d="" fill="#FDF7EF" transform="translate(0,0)"/>
<path d="" fill="#FBF7ED" transform="translate(0,0)"/>
<path d="" fill="#FDF2EF" transform="translate(0,0)"/>
<path d="" fill="#FCF5EC" transform="translate(0,0)"/>
<path d="" fill="#FAF4EF" transform="translate(0,0)"/>
<path d="" fill="#FBF5EF" transform="translate(0,0)"/>
<path d="" fill="#FAF7EF" transform="translate(0,0)"/>
<path d="" fill="#FFFCEE" transform="translate(0,0)"/>
<path d="" fill="#FAF6EF" transform="translate(0,0)"/>
<path d="" fill="#FCF5EF" transform="translate(0,0)"/>
<path d="" fill="#FAF5EE" transform="translate(0,0)"/>
<path d="" fill="#FAF2EF" transform="translate(0,0)"/>
<path d="" fill="#FAF3ED" transform="translate(0,0)"/>
<path d="" fill="#FBF5EE" transform="translate(0,0)"/>
<path d="" fill="#FBF4EE" transform="translate(0,0)"/>
<path d="" fill="#F9F1EF" transform="translate(0,0)"/>
<path d="" fill="#FAF3EF" transform="translate(0,0)"/>
<path d="" fill="#F9EFEE" transform="translate(0,0)"/>
<path d="" fill="#FBF5EF" transform="translate(0,0)"/>
<path d="" fill="#FCF6EF" transform="translate(0,0)"/>
<path d="" fill="#F8EEEE" transform="translate(0,0)"/>
<path d="" fill="#FCF4EF" transform="translate(0,0)"/>
<path d="" fill="#FDF5EE" transform="translate(0,0)"/>
<path d="" fill="#FDF6EE" transform="translate(0,0)"/>
<path d="" fill="#FDF5EF" transform="translate(0,0)"/>
<path d="" fill="#FDF7EF" transform="translate(0,0)"/>
<path d="" fill="#FCF6EE" transform="translate(0,0)"/>
<path d="" fill="#FDF7EE" transform="translate(0,0)"/>
<path d="" fill="#FEF6ED" transform="translate(0,0)"/>
<path d="" fill="#FBF7EE" transform="translate(0,0)"/>
<path d="" fill="#FBF3ED" transform="translate(0,0)"/>
<path d="" fill="#FCF4EE" transform="translate(0,0)"/>
<path d="" fill="#FBF5EE" transform="translate(0,0)"/>
<path d="" fill="#FBF4EE" transform="translate(0,0)"/>
<path d="" fill="#FCF6EF" transform="translate(0,0)"/>
<path d="" fill="#FBF7EE" transform="translate(0,0)"/>
<path d="" fill="#F8FFEF" transform="translate(0,0)"/>
<path d="" fill="#FDF6EF" transform="translate(0,0)"/>
<path d="" fill="#FFFFEC" transform="translate(0,0)"/>
<path d="" fill="#FFFFEB" transform="translate(0,0)"/>
<path d="" fill="#FBF6EF" transform="translate(0,0)"/>
<path d="" fill="#FAF7EE" transform="translate(0,0)"/>
<path d="" fill="#FAF5ED" transform="translate(0,0)"/>
<path d="" fill="#FBF5EE" transform="translate(0,0)"/>
<path d="" fill="#FEF4ED" transform="translate(0,0)"/>
<path d="" fill="#FAF0EE" transform="translate(0,0)"/>
<path d="" fill="#FFF3ED" transform="translate(0,0)"/>
<path d="" fill="#F9F4ED" transform="translate(0,0)"/>
<path d="" fill="#F9F4ED" transform="translate(0,0)"/>
<path d="" fill="#FCF6EE" transform="translate(0,0)"/>
<path d="" fill="#F9F4ED" transform="translate(0,0)"/>
<path d="" fill="#FAF2EF" transform="translate(0,0)"/>
<path d="" fill="#F9F4ED" transform="translate(0,0)"/>
<path d="" fill="#FDF8EF" transform="translate(0,0)"/>
<path d="" fill="#FBF6ED" transform="translate(0,0)"/>
<path d="" fill="#FEF7F3" transform="translate(0,0)"/>
<path d="" fill="#FBF5EF" transform="translate(0,0)"/>
<path d="" fill="#FCF7EF" transform="translate(0,0)"/>
<path d="" fill="#FDFBF3" transform="translate(0,0)"/>
<path d="" fill="#FDF7EE" transform="translate(0,0)"/>
<path d="" fill="#FDF5EF" transform="translate(0,0)"/>
<path d="" fill="#FBF5EE" transform="translate(0,0)"/>
<path d="" fill="#FEF5EE" transform="translate(0,0)"/>
<path d="" fill="#FBF5ED" transform="translate(0,0)"/>
<path d="" fill="#FAF5ED" transform="translate(0,0)"/>
<path d="" fill="#FBF5EE" transform="translate(0,0)"/>
<path d="" fill="#FBF4ED" transform="translate(0,0)"/>
<path d="" fill="#FDF7EE" transform="translate(0,0)"/>
<path d="" fill="#FAF7EE" transform="translate(0,0)"/>
<path d="" fill="#FEFBEF" transform="translate(0,0)"/>
<path d="" fill="#F9F4EF" transform="translate(0,0)"/>
<path d="" fill="#FEFFED" transform="translate(0,0)"/>
<path d="" fill="#F8F7E9" transform="translate(0,0)"/>
<path d="" fill="#FBF5EF" transform="translate(0,0)"/>
<path d="" fill="#FFFDEF" transform="translate(0,0)"/>
<path d="" fill="#F7F8E8" transform="translate(0,0)"/>
<path d="" fill="#F9F6ED" transform="translate(0,0)"/>
<path d="" fill="#FBF7F0" transform="translate(0,0)"/>
<path d="" fill="#FCF5EE" transform="translate(0,0)"/>
<path d="" fill="#FDF8F1" transform="translate(0,0)"/>
<path d="" fill="#F9F0EE" transform="translate(0,0)"/>
<path d="" fill="#FFF3ED" transform="translate(0,0)"/>
<path d="" fill="#FCF6F2" transform="translate(0,0)"/>
<path d="" fill="#FBF7EF" transform="translate(0,0)"/>
<path d="" fill="#FCF3EE" transform="translate(0,0)"/>
<path d="" fill="#FBF4EF" transform="translate(0,0)"/>
<path d="" fill="#FCF7EF" transform="translate(0,0)"/>
<path d="" fill="#FCF8EF" transform="translate(0,0)"/>
<path d="" fill="#F4F7EA" transform="translate(0,0)"/>
<path d="" fill="#FAF7EE" transform="translate(0,0)"/>
<path d="" fill="#FDF6EF" transform="translate(0,0)"/>
<path d="" fill="#FDF6EE" transform="translate(0,0)"/>
<path d="" fill="#FAF5EE" transform="translate(0,0)"/>
<path d="" fill="#FEF7ED" transform="translate(0,0)"/>
<path d="" fill="#FEF7F3" transform="translate(0,0)"/>
<path d="" fill="#FCF6EE" transform="translate(0,0)"/>
<path d="" fill="#FCF5EE" transform="translate(0,0)"/>
<path d="" fill="#FEF7F1" transform="translate(0,0)"/>
<path d="" fill="#FCF6EE" transform="translate(0,0)"/>
<path d="" fill="#FCF7EE" transform="translate(0,0)"/>
<path d="" fill="#FBF2EE" transform="translate(0,0)"/>
<path d="" fill="#FBF4ED" transform="translate(0,0)"/>
<path d="" fill="#FBF4ED" transform="translate(0,0)"/>
<path d="" fill="#F9F5EC" transform="translate(0,0)"/>
<path d="" fill="#F8F4EB" transform="translate(0,0)"/>
<path d="" fill="#FAF3EF" transform="translate(0,0)"/>
<path d="" fill="#FBF3EF" transform="translate(0,0)"/>
<path d="" fill="#FBF5EF" transform="translate(0,0)"/>
<path d="" fill="#FCFCF1" transform="translate(0,0)"/>
<path d="" fill="#FBF5EF" transform="translate(0,0)"/>
<path d="" fill="#FDF6ED" transform="translate(0,0)"/>
<path d="" fill="#FAF6EF" transform="translate(0,0)"/>
<path d="" fill="#FCF4EF" transform="translate(0,0)"/>
<path d="" fill="#FAF6EF" transform="translate(0,0)"/>
<path d="" fill="#FAF3EE" transform="translate(0,0)"/>
<path d="" fill="#FEF9EF" transform="translate(0,0)"/>
<path d="" fill="#FDF8EF" transform="translate(0,0)"/>
<path d="" fill="#FCF5EF" transform="translate(0,0)"/>
<path d="" fill="#FCF7EE" transform="translate(0,0)"/>
<path d="" fill="#FBF5EF" transform="translate(0,0)"/>
<path d="" fill="#FDF7EE" transform="translate(0,0)"/>
<path d="" fill="#FBF5EE" transform="translate(0,0)"/>
<path d="" fill="#FBF5EE" transform="translate(0,0)"/>
<path d="" fill="#FCF6EE" transform="translate(0,0)"/>
<path d="" fill="#FBF4ED" transform="translate(0,0)"/>
<path d="" fill="#FBF5EE" transform="translate(0,0)"/>
<path d="" fill="#FCF4EC" transform="translate(0,0)"/>
<path d="" fill="#FBF5ED" transform="translate(0,0)"/>
<path d="" fill="#FBF4EE" transform="translate(0,0)"/>
<path d="" fill="#FAF8EF" transform="translate(0,0)"/>
<path d="" fill="#FCF6EF" transform="translate(0,0)"/>
<path d="" fill="#FCF5EC" transform="translate(0,0)"/>
<path d="" fill="#FCF7EF" transform="translate(0,0)"/>
<path d="" fill="#FCF7EF" transform="translate(0,0)"/>
<path d="" fill="#FCF7EE" transform="translate(0,0)"/>
<path d="" fill="#FBF4EE" transform="translate(0,0)"/>
<path d="" fill="#FCF7EE" transform="translate(0,0)"/>
<path d="" fill="#FDF7EE" transform="translate(0,0)"/>
<path d="" fill="#F8EDEF" transform="translate(0,0)"/>
<path d="" fill="#F8EDEF" transform="translate(0,0)"/>
<path d="" fill="#FAF5EE" transform="translate(0,0)"/>
<path d="" fill="#F9F6ED" transform="translate(0,0)"/>
<path d="" fill="#F8F6EE" transform="translate(0,0)"/>
<path d="" fill="#FAF3EE" transform="translate(0,0)"/>
<path d="" fill="#FAF4ED" transform="translate(0,0)"/>
<path d="" fill="#F7FDEE" transform="translate(0,0)"/>
<path d="" fill="#FCF6EE" transform="translate(0,0)"/>
<path d="" fill="#FAF4EB" transform="translate(0,0)"/>
<path d="" fill="#FDF7ED" transform="translate(0,0)"/>
<path d="" fill="#FAF3F2" transform="translate(0,0)"/>
<path d="" fill="#FCF6F0" transform="translate(0,0)"/>
<path d="" fill="#FCF5EE" transform="translate(0,0)"/>
<path d="" fill="#FBF5EE" transform="translate(0,0)"/>
<path d="" fill="#FBF5EF" transform="translate(0,0)"/>
<path d="" fill="#FCF6EF" transform="translate(0,0)"/>
<path d="" fill="#FBF4EF" transform="translate(0,0)"/>
<path d="" fill="#FAF2EF" transform="translate(0,0)"/>
<path d="" fill="#FBF5EF" transform="translate(0,0)"/>
<path d="" fill="#FAF5EF" transform="translate(0,0)"/>
<path d="" fill="#FAF3EE" transform="translate(0,0)"/>
<path d="" fill="#FBF6F0" transform="translate(0,0)"/>
<path d="" fill="#FBF5EE" transform="translate(0,0)"/>
<path d="" fill="#FCF4EE" transform="translate(0,0)"/>
<path d="" fill="#FAF4EE" transform="translate(0,0)"/>
<path d="" fill="#FDFAED" transform="translate(0,0)"/>
<path d="" fill="#FEF9F0" transform="translate(0,0)"/>
<path d="" fill="#FDF7ED" transform="translate(0,0)"/>
<path d="" fill="#FBF4ED" transform="translate(0,0)"/>
<path d="" fill="#FCF5EE" transform="translate(0,0)"/>
<path d="" fill="#FCF6ED" transform="translate(0,0)"/>
<path d="" fill="#FBF7EE" transform="translate(0,0)"/>
<path d="" fill="#F9F3EF" transform="translate(0,0)"/>
<path d="" fill="#FDF8EE" transform="translate(0,0)"/>
<path d="" fill="#FBF5EF" transform="translate(0,0)"/>
<path d="" fill="#FAF4EF" transform="translate(0,0)"/>
<path d="" fill="#FCF4EC" transform="translate(0,0)"/>
<path d="" fill="#FDF6EE" transform="translate(0,0)"/>
<path d="" fill="#FBF5EF" transform="translate(0,0)"/>
<path d="" fill="#FCF3EE" transform="translate(0,0)"/>
<path d="" fill="#FCF3EF" transform="translate(0,0)"/>
<path d="" fill="#FBF7EF" transform="translate(0,0)"/>
<path d="" fill="#FFFEEE" transform="translate(0,0)"/>
<path d="" fill="#F9F8EE" transform="translate(0,0)"/>
<path d="" fill="#FEF3ED" transform="translate(0,0)"/>
<path d="" fill="#FDF7EE" transform="translate(0,0)"/>
<path d="" fill="#FDF6ED" transform="translate(0,0)"/>
<path d="" fill="#F8F7EC" transform="translate(0,0)"/>
<path d="" fill="#FCF5EF" transform="translate(0,0)"/>
<path d="" fill="#FAF7F0" transform="translate(0,0)"/>
<path d="" fill="#FCF4EF" transform="translate(0,0)"/>
<path d="" fill="#FFF7EC" transform="translate(0,0)"/>
<path d="" fill="#FCF5EE" transform="translate(0,0)"/>
<path d="" fill="#FCF4ED" transform="translate(0,0)"/>
<path d="" fill="#FDF8EF" transform="translate(0,0)"/>
<path d="" fill="#FBF4EF" transform="translate(0,0)"/>
<path d="" fill="#FAF6EF" transform="translate(0,0)"/>
<path d="" fill="#FDF3EE" transform="translate(0,0)"/>
<path d="" fill="#FCF4EF" transform="translate(0,0)"/>
<path d="" fill="#FCF4EC" transform="translate(0,0)"/>
<path d="" fill="#FBF5EE" transform="translate(0,0)"/>
<path d="" fill="#FBF6EF" transform="translate(0,0)"/>
<path d="" fill="#FCF9EF" transform="translate(0,0)"/>
<path d="" fill="#FCF3EB" transform="translate(0,0)"/>
<path d="" fill="#FBF6ED" transform="translate(0,0)"/>
<path d="" fill="#FCF6EF" transform="translate(0,0)"/>
<path d="" fill="#FDF6EF" transform="translate(0,0)"/>
<path d="" fill="#FDF6ED" transform="translate(0,0)"/>
<path d="" fill="#FDF6EF" transform="translate(0,0)"/>
</svg>
