<svg version="1.1" id="Layer_1" xmlns="http://www.w3.org/2000/svg" xmlns:xlink="http://www.w3.org/1999/xlink" x="0px" y="0px"
	 width="100%" viewBox="0 0 375 271" enable-background="new 0 0 375 271" xml:space="preserve">
<path fill="#000000" opacity="1.000000" stroke="none" 
	d="
M229.000000,272.000000 
	C152.666687,272.000000 76.833389,272.000000 1.000061,272.000000 
	C1.000041,181.666733 1.000041,91.333450 1.000020,1.000134 
	C125.999901,1.000089 250.999802,1.000089 375.999756,1.000045 
	C375.999847,91.333199 375.999847,181.666397 375.999939,271.999817 
	C327.166656,272.000000 278.333344,272.000000 229.000000,272.000000 
M63.000317,26.547985 
	C64.772530,31.938833 65.178841,38.596844 68.686440,42.377762 
	C72.484451,46.471741 79.174866,47.882427 84.584808,50.454346 
	C81.816093,54.784206 82.664642,57.479206 87.673767,59.748100 
	C84.474564,65.653267 91.133293,65.479637 93.305771,69.150284 
	C86.760071,67.810684 82.626068,74.381714 76.116058,73.101128 
	C74.638611,72.810501 71.977966,71.735382 71.660248,75.253632 
	C71.625664,75.636635 67.864304,76.503860 66.527153,75.808640 
	C60.201595,72.519798 53.705158,70.501358 45.676445,71.146889 
	C45.874054,73.586502 46.083275,75.904640 46.242233,78.226212 
	C46.346176,79.744293 46.377266,81.267372 46.440987,82.788208 
	C48.470039,82.501793 50.519638,82.314468 52.521980,81.899239 
	C54.290485,81.532494 56.006294,80.911629 57.745369,80.402962 
	C57.905617,83.022446 59.144402,86.305962 58.018997,88.133911 
	C54.940449,93.134239 55.209381,94.539642 61.158955,96.040726 
	C62.554348,96.392776 63.816051,97.274719 65.139259,97.912880 
	C64.996056,98.131004 64.852844,98.349129 64.709641,98.567253 
	C61.887436,98.348793 59.065228,98.130333 57.283157,97.992386 
	C55.902073,100.547958 55.015999,102.287331 54.032738,103.969910 
	C53.434341,104.993904 52.107361,105.938988 52.121876,106.904282 
	C52.155220,109.121895 52.651272,111.374062 53.250786,113.531258 
	C54.014778,116.280273 54.088081,118.392677 50.561745,119.050491 
	C49.021210,119.337868 46.702034,119.662430 46.214382,120.679047 
	C43.624340,126.078522 38.897678,124.695541 34.560810,125.107590 
	C32.670708,125.287170 30.890747,126.626030 29.060764,127.438400 
	C27.307249,129.085403 24.592709,129.254913 23.395460,130.690140 
	C22.401041,131.882202 23.191874,134.563538 23.191874,136.377823 
	C21.489254,137.351059 17.709217,138.225006 16.560253,140.454727 
	C14.584075,144.289764 17.030214,147.472549 20.859720,149.487244 
	C22.455643,150.326843 23.698002,151.838486 25.260332,153.181396 
	C19.850191,154.643799 17.332661,157.268372 18.009312,160.458527 
	C18.508783,162.813370 24.363331,164.724350 27.912247,164.796143 
	C30.614656,164.850784 33.831112,165.871460 35.846149,167.597748 
	C39.210472,170.480011 41.797306,174.269791 44.293896,177.189255 
	C41.314205,178.606979 40.743076,182.632065 36.568295,183.439072 
	C32.670036,184.192627 29.914499,184.675934 26.410666,182.060822 
	C30.586540,178.937790 31.200209,175.733948 27.757738,172.284698 
	C25.126764,169.648529 20.998960,169.796494 17.916346,172.564316 
	C13.357771,176.657394 12.806938,179.001999 15.142008,182.065460 
	C13.146828,183.182190 9.300240,184.417664 9.347374,185.480438 
	C9.489988,188.696045 10.197236,193.391693 12.384569,194.728241 
	C18.842705,198.674423 25.437107,202.656601 33.510418,203.475983 
	C36.757927,203.805588 38.750446,204.177368 40.788258,200.865005 
	C41.333054,203.133911 40.901928,205.084595 40.899166,207.035873 
	C40.896271,209.081421 40.595551,211.659607 41.660126,213.077942 
	C45.508965,218.205719 50.523148,218.336121 56.766788,214.354538 
	C58.351376,215.319427 59.638329,216.621933 61.120956,216.907120 
	C65.304108,217.711746 69.567604,218.098694 74.198120,218.702209 
	C70.821220,223.929871 71.236809,225.136185 76.220299,226.663879 
	C78.875008,227.477692 81.538223,228.264984 84.207039,229.031357 
	C88.431839,230.244553 92.817459,233.921326 96.640457,228.212189 
	C96.856712,227.889236 97.897255,228.020493 98.536758,228.093277 
	C109.851181,229.380997 121.163857,230.684219 132.473221,232.015503 
	C133.318756,232.115036 134.136307,232.452148 134.966873,232.678802 
	C134.890930,232.913742 134.814987,233.148666 134.739044,233.383606 
	C131.267075,233.383606 127.795120,233.383606 124.222427,233.383606 
	C124.222427,235.524933 124.222427,237.600525 124.222427,239.880859 
	C127.066460,239.880859 129.692642,239.910217 132.317825,239.871719 
	C134.488510,239.839890 138.355743,240.216843 138.542297,239.569092 
	C139.489883,236.279022 141.552628,238.003616 143.154907,238.020004 
	C149.145554,238.081253 151.438553,236.475388 152.329559,232.002670 
	C161.509583,232.002670 170.564926,232.002670 179.554657,232.002670 
	C180.620850,237.947708 182.564453,238.861282 187.499496,235.989685 
	C189.656281,234.734695 194.355606,236.437790 195.039398,238.531265 
	C195.797379,240.851822 196.872101,243.068954 198.135056,246.118774 
	C200.799698,243.851624 202.560791,242.353241 204.631073,240.591782 
	C212.256866,242.804886 220.465408,245.187119 229.241409,247.734024 
	C231.697113,251.307541 236.115677,251.122437 241.025085,250.893051 
	C241.025085,248.861481 241.025085,247.100266 241.025085,245.387054 
	C249.826340,244.520218 250.089844,244.220718 248.280228,237.398041 
	C256.208191,235.827881 250.007080,231.384842 249.786148,228.410904 
	C249.646469,226.530792 247.587830,224.671082 246.090286,223.085144 
	C245.613739,222.580475 244.060059,223.257812 243.204010,222.901855 
	C242.281448,222.518250 241.599014,221.557144 240.226379,220.320541 
	C247.829300,220.320541 254.304733,219.973816 260.726318,220.413467 
	C267.814728,220.898773 274.841492,222.245743 281.925903,222.865143 
	C283.168671,222.973816 285.812805,220.938446 285.697144,220.585419 
	C284.293060,216.299896 288.223022,216.397629 289.912964,216.179184 
	C294.151337,215.631363 298.651093,216.667236 302.771729,215.785782 
	C306.051971,215.084106 310.963409,212.980896 311.532288,210.625809 
	C312.528564,206.501648 310.749329,201.707047 310.290558,198.347610 
	C312.021271,196.067383 313.522461,194.089523 315.735992,191.173172 
	C316.133514,190.842773 317.561493,189.655884 318.989471,188.468994 
	C317.580200,186.960052 316.427094,184.919678 314.693329,184.083954 
	C312.759766,183.151947 310.267853,183.449692 308.077820,182.952820 
	C306.659058,182.630936 305.345734,181.844284 303.064606,180.874557 
	C308.224518,178.717636 312.009033,178.182785 314.501984,172.976715 
	C316.803375,168.170639 316.424774,164.519684 315.582794,160.152954 
	C311.471893,158.913910 309.194458,155.254059 311.513275,153.240921 
	C314.022125,151.062820 317.089569,149.300934 320.199615,148.096802 
	C324.664185,146.368225 330.111847,146.301987 333.764191,143.639221 
	C336.520538,141.629700 338.634247,142.267334 341.145782,141.947479 
	C344.056549,141.576813 347.095001,140.862534 347.833252,137.412323 
	C348.402557,134.751755 348.453552,131.980301 348.712280,129.477829 
	C347.033020,128.967209 345.524658,128.294937 343.954926,128.087738 
	C342.173035,127.852509 340.336212,128.033417 337.878204,128.033417 
	C338.926300,125.717339 339.798126,123.790825 340.663879,121.877693 
	C349.209442,125.326378 352.086487,124.751808 353.249847,120.926849 
	C355.890594,120.562218 358.158752,120.674492 359.951019,119.805435 
	C360.737640,119.423988 360.554077,117.041702 360.811035,115.567924 
	C357.943024,115.484245 355.057098,115.184792 352.215607,115.420715 
	C351.042023,115.518150 349.963745,116.764252 348.282806,117.848793 
	C348.167969,108.017021 338.217407,112.546104 335.160126,107.371658 
	C338.709351,106.880913 342.042725,106.849426 345.042114,105.832664 
	C346.655884,105.285614 348.798676,102.976486 348.707794,101.593544 
	C348.602295,99.987968 346.429718,98.387856 344.906921,97.071648 
	C344.319519,96.563957 343.052277,96.842812 340.901917,96.664253 
	C343.107941,94.032631 344.653381,91.992577 346.400696,90.143288 
	C350.766602,85.522652 349.684387,81.791969 343.737335,79.910637 
	C341.615112,79.239281 339.865631,77.336754 337.997040,75.928520 
	C334.901184,73.595314 335.309967,67.885223 330.108337,67.607330 
	C327.496979,67.467827 324.871979,67.583008 322.026306,67.583008 
	C321.520599,64.595612 329.118347,63.030228 323.534332,59.509907 
	C325.227783,58.616802 326.684265,57.605381 328.297546,57.047592 
	C331.845886,55.820766 332.479523,53.300446 331.549957,50.146061 
	C330.506073,46.603748 327.647461,48.012093 325.423401,48.295620 
	C322.397339,48.681385 319.377747,49.271500 316.425690,50.042992 
	C313.051514,50.924789 308.714996,51.154854 306.682495,53.386040 
	C304.037842,56.289265 302.910614,54.142376 301.132202,53.387817 
	C299.384033,52.646111 297.747620,51.428635 295.938263,51.098022 
	C293.736816,50.695770 291.405823,51.002438 288.997681,51.002438 
	C288.997681,49.111885 289.388153,47.620789 288.905548,46.508476 
	C288.193115,44.866421 287.134125,42.639717 285.731842,42.188950 
	C283.027588,41.319675 280.346436,41.880810 279.115784,45.376583 
	C278.614868,46.799507 276.939728,48.827248 275.789673,48.833298 
	C269.693481,48.865337 263.588562,48.414684 257.502716,47.930069 
	C256.624481,47.860138 255.240143,46.811607 255.095490,46.029881 
	C253.993698,40.075493 248.229187,42.197826 244.861862,40.303799 
	C243.894089,39.759449 241.069977,42.515385 238.199417,44.323524 
	C236.735764,44.323524 233.902985,44.323524 230.843430,44.323524 
	C231.049591,46.689041 231.226105,48.714527 231.432709,51.085335 
	C227.408997,51.547367 222.921387,45.169422 218.507690,52.830482 
	C218.689835,49.110672 218.810135,46.654068 218.897995,44.859814 
	C212.243774,40.971096 209.202942,47.701580 204.421219,48.818871 
	C202.924988,44.567589 197.289261,42.304588 193.524582,44.206551 
	C190.135406,45.918797 186.735825,47.610401 182.797943,49.583069 
	C183.068787,51.160072 183.466873,53.478004 183.944443,56.258801 
	C179.283371,54.858967 174.361450,53.606899 169.629654,51.844425 
	C167.827744,51.173256 166.462250,49.330360 164.897842,48.021477 
	C159.401123,47.391762 153.311386,47.871685 148.375259,42.914425 
	C149.240494,39.314842 147.562546,37.104950 143.001556,37.021408 
	C138.135406,36.932278 133.266342,37.001335 129.348053,37.001335 
	C128.587692,35.454041 128.161789,32.791656 126.823982,32.203495 
	C122.893028,30.475260 118.664238,32.356560 117.357773,35.880779 
	C115.541656,34.732868 113.839226,33.485622 111.990463,32.517967 
	C104.081070,28.378139 95.242180,26.676924 86.908119,28.503624 
	C81.180252,29.759089 77.050240,29.357626 72.605484,26.275677 
	C71.428131,25.459311 70.059372,24.393837 68.771889,24.384800 
	C66.852173,24.371326 64.926582,25.194067 63.000317,26.547985 
M47.319687,97.997879 
	C44.317932,98.449677 41.316181,98.901482 38.350864,99.347801 
	C37.126263,103.739265 37.776550,107.226845 42.922661,107.906197 
	C46.553818,108.385544 49.392113,106.457649 50.263855,103.030731 
	C50.622440,101.621094 48.937725,99.691681 47.319687,97.997879 
M166.045883,40.651268 
	C166.940063,42.399105 167.458267,45.198059 168.805267,45.679852 
	C171.772003,46.740986 175.157303,46.878651 178.371170,46.874950 
	C179.577499,46.873562 180.782181,45.434982 181.987610,44.651627 
	C180.838669,43.434883 179.882523,41.871105 178.488007,41.096439 
	C177.016266,40.278870 175.141953,39.997993 173.415359,39.873703 
	C171.140488,39.709938 168.838196,39.927460 166.045883,40.651268 
M344.403687,59.006493 
	C340.311279,59.531853 338.020233,62.359612 339.215729,65.872475 
	C341.072906,71.329536 346.069214,68.309341 349.772827,68.843155 
	C350.507477,64.256477 349.753906,60.719925 344.403687,59.006493 
M344.750458,199.990067 
	C342.156097,199.171112 339.561707,198.352158 336.967346,197.533188 
	C336.514709,199.401901 335.085999,201.837402 335.783356,203.038345 
	C338.395569,207.537064 342.939423,205.691925 347.687592,205.859802 
	C346.838379,203.553711 346.200500,201.821564 344.750458,199.990067 
M190.296387,42.958492 
	C193.306519,42.103939 195.391235,39.480419 193.708817,37.255905 
	C192.228149,35.298153 188.569000,34.830635 185.764587,34.142162 
	C185.064133,33.970203 183.258850,35.411766 183.175613,36.234573 
	C183.019440,37.778397 183.247284,39.948345 184.236298,40.874073 
	C185.510849,42.067081 187.690109,42.293530 190.296387,42.958492 
M276.322632,230.000778 
	C274.083221,230.571686 270.465607,228.379547 270.132141,232.671921 
	C270.025024,234.050735 271.435883,236.779282 272.137421,236.774338 
	C275.064026,236.753784 279.005554,236.880478 280.631836,235.138794 
	C282.391602,233.254166 279.878876,230.803955 276.322632,230.000778 
M56.999561,67.962852 
	C56.999664,67.465385 57.056667,66.960281 56.991035,66.471649 
	C56.357754,61.756611 52.644878,63.052784 49.873421,63.173828 
	C49.147881,63.205517 47.992363,65.346779 47.935616,66.561317 
	C47.742710,70.690010 50.908295,70.122574 53.476933,69.936394 
	C54.670372,69.849884 55.821125,69.174385 56.999561,67.962852 
M48.439369,85.000923 
	C47.959808,86.478645 47.079426,87.971199 47.133350,89.429192 
	C47.173187,90.506279 48.251270,92.184677 49.186447,92.444473 
	C50.730103,92.873299 52.598770,92.585350 54.170029,92.090294 
	C54.495506,91.987747 54.620247,89.244774 53.958805,88.450203 
	C52.758919,87.008820 50.898647,86.117180 48.439369,85.000923 
M260.770813,240.755936 
	C261.847504,239.867371 262.924164,238.978806 264.880493,237.364273 
	C261.112854,235.810440 257.948730,234.505493 254.365555,233.027740 
	C253.856674,240.937653 253.889313,240.975220 260.770813,240.755936 
M358.187286,86.994949 
	C360.748108,86.692223 362.087799,85.105240 360.335724,83.122902 
	C359.181152,81.816597 356.670410,81.276642 354.759430,81.260002 
	C353.852264,81.252106 352.146637,83.274513 352.153290,84.368958 
	C352.175446,88.031723 355.249420,86.744057 358.187286,86.994949 
M243.030762,251.105759 
	C244.922440,254.214264 247.469711,253.397522 249.770401,251.920258 
	C250.530899,251.431946 250.576675,249.830490 250.949234,248.737991 
	C249.041565,248.159210 247.145172,247.243149 245.220291,247.178665 
	C244.515869,247.155090 243.743774,249.151764 243.030762,251.105759 
M98.050751,249.976913 
	C99.637466,249.976913 101.224190,249.976913 104.117859,249.976913 
	C102.880547,247.306992 102.196442,245.414490 101.098305,243.804382 
	C100.872482,243.473282 98.976807,243.973801 98.064476,244.477768 
	C95.646301,245.813599 96.084129,247.765594 98.050751,249.976913 
z"/>
<path fill="#FCF6EF" opacity="1.000000" stroke="none" 
	d="
M63.001904,26.104502 
	C64.926582,25.194067 66.852173,24.371326 68.771889,24.384800 
	C70.059372,24.393837 71.428131,25.459311 72.605484,26.275677 
	C77.050240,29.357626 81.180252,29.759089 86.908119,28.503624 
	C95.242180,26.676924 104.081070,28.378139 111.990463,32.517967 
	C113.839226,33.485622 115.541656,34.732868 117.357773,35.880779 
	C118.664238,32.356560 122.893028,30.475260 126.823982,32.203495 
	C128.161789,32.791656 128.587692,35.454041 129.348053,37.001335 
	C133.266342,37.001335 138.135406,36.932278 143.001556,37.021408 
	C147.562546,37.104950 149.240494,39.314842 148.375259,42.914425 
	C153.311386,47.871685 159.401123,47.391762 164.897842,48.021477 
	C166.462250,49.330360 167.827744,51.173256 169.629654,51.844425 
	C174.361450,53.606899 179.283371,54.858967 183.944443,56.258801 
	C183.466873,53.478004 183.068787,51.160072 182.797943,49.583069 
	C186.735825,47.610401 190.135406,45.918797 193.524582,44.206551 
	C197.289261,42.304588 202.924988,44.567589 204.421219,48.818871 
	C209.202942,47.701580 212.243774,40.971096 218.897995,44.859814 
	C218.810135,46.654068 218.689835,49.110672 218.507690,52.830482 
	C222.921387,45.169422 227.408997,51.547367 231.432709,51.085335 
	C231.226105,48.714527 231.049591,46.689041 230.843430,44.323524 
	C233.902985,44.323524 236.735764,44.323524 238.199417,44.323524 
	C241.069977,42.515385 243.894089,39.759449 244.861862,40.303799 
	C248.229187,42.197826 253.993698,40.075493 255.095490,46.029881 
	C255.240143,46.811607 256.624481,47.860138 257.502716,47.930069 
	C263.588562,48.414684 269.693481,48.865337 275.789673,48.833298 
	C276.939728,48.827248 278.614868,46.799507 279.115784,45.376583 
	C280.346436,41.880810 283.027588,41.319675 285.731842,42.188950 
	C287.134125,42.639717 288.193115,44.866421 288.905548,46.508476 
	C289.388153,47.620789 288.997681,49.111885 288.997681,51.002438 
	C291.405823,51.002438 293.736816,50.695770 295.938263,51.098022 
	C297.747620,51.428635 299.384033,52.646111 301.132202,53.387817 
	C302.910614,54.142376 304.037842,56.289265 306.682495,53.386040 
	C308.714996,51.154854 313.051514,50.924789 316.425690,50.042992 
	C319.377747,49.271500 322.397339,48.681385 325.423401,48.295620 
	C327.647461,48.012093 330.506073,46.603748 331.549957,50.146061 
	C332.479523,53.300446 331.845886,55.820766 328.297546,57.047592 
	C326.684265,57.605381 325.227783,58.616802 323.534332,59.509907 
	C329.118347,63.030228 321.520599,64.595612 322.026306,67.583008 
	C324.871979,67.583008 327.496979,67.467827 330.108337,67.607330 
	C335.309967,67.885223 334.901184,73.595314 337.997040,75.928520 
	C339.865631,77.336754 341.615112,79.239281 343.737335,79.910637 
	C349.684387,81.791969 350.766602,85.522652 346.400696,90.143288 
	C344.653381,91.992577 343.107941,94.032631 340.901917,96.664253 
	C343.052277,96.842812 344.319519,96.563957 344.906921,97.071648 
	C346.429718,98.387856 348.602295,99.987968 348.707794,101.593544 
	C348.798676,102.976486 346.655884,105.285614 345.042114,105.832664 
	C342.042725,106.849426 338.709351,106.880913 335.160126,107.371658 
	C338.217407,112.546104 348.167969,108.017021 348.282806,117.848793 
	C349.963745,116.764252 351.042023,115.518150 352.215607,115.420715 
	C355.057098,115.184792 357.943024,115.484245 360.811035,115.567924 
	C360.554077,117.041702 360.737640,119.423988 359.951019,119.805435 
	C358.158752,120.674492 355.890594,120.562218 353.249847,120.926849 
	C352.086487,124.751808 349.209442,125.326378 340.663879,121.877693 
	C339.798126,123.790825 338.926300,125.717339 337.878204,128.033417 
	C340.336212,128.033417 342.173035,127.852509 343.954926,128.087738 
	C345.524658,128.294937 347.033020,128.967209 348.712280,129.477829 
	C348.453552,131.980301 348.402557,134.751755 347.833252,137.412323 
	C347.095001,140.862534 344.056549,141.576813 341.145782,141.947479 
	C338.634247,142.267334 336.520538,141.629700 333.764191,143.639221 
	C330.111847,146.301987 324.664185,146.368225 320.199615,148.096802 
	C317.089569,149.300934 314.022125,151.062820 311.513275,153.240921 
	C309.194458,155.254059 311.471893,158.913910 315.582764,160.152954 
	C316.424774,164.519684 316.803375,168.170639 314.501984,172.976715 
	C312.009033,178.182785 308.224518,178.717636 303.064606,180.874557 
	C305.345734,181.844284 306.659058,182.630936 308.077820,182.952820 
	C310.267853,183.449692 312.759766,183.151947 314.693329,184.083954 
	C316.427094,184.919678 317.580200,186.960052 318.989471,188.468994 
	C317.561493,189.655884 316.133514,190.842773 315.735992,191.173172 
	C313.522461,194.089523 312.021271,196.067383 310.290558,198.347610 
	C310.749329,201.707047 312.528564,206.501648 311.532288,210.625809 
	C310.963409,212.980896 306.051971,215.084106 302.771729,215.785782 
	C298.651093,216.667236 294.151337,215.631363 289.912964,216.179184 
	C288.223022,216.397629 284.293060,216.299896 285.697144,220.585419 
	C285.812805,220.938446 283.168671,222.973816 281.925903,222.865143 
	C274.841492,222.245743 267.814728,220.898773 260.726318,220.413467 
	C254.304733,219.973816 247.829300,220.320541 240.226379,220.320541 
	C241.599014,221.557144 242.281448,222.518250 243.204010,222.901855 
	C244.060059,223.257812 245.613739,222.580475 246.090286,223.085144 
	C247.587830,224.671082 249.646469,226.530792 249.786148,228.410904 
	C250.007080,231.384842 256.208191,235.827881 248.280228,237.398041 
	C250.089844,244.220718 249.826340,244.520218 241.025085,245.387054 
	C241.025085,247.100266 241.025085,248.861481 241.025085,250.893051 
	C236.115677,251.122437 231.697113,251.307541 229.241409,247.734024 
	C220.465408,245.187119 212.256866,242.804886 204.631073,240.591782 
	C202.560791,242.353241 200.799698,243.851624 198.135056,246.118774 
	C196.872101,243.068954 195.797379,240.851822 195.039398,238.531265 
	C194.355606,236.437790 189.656281,234.734695 187.499496,235.989685 
	C182.564453,238.861282 180.620850,237.947708 179.554657,232.002670 
	C170.564926,232.002670 161.509583,232.002670 152.329559,232.002670 
	C151.438553,236.475388 149.145554,238.081253 143.154907,238.020004 
	C141.552628,238.003616 139.489883,236.279022 138.542297,239.569092 
	C138.355743,240.216843 134.488510,239.839890 132.317825,239.871719 
	C129.692642,239.910217 127.066460,239.880859 124.222427,239.880859 
	C124.222427,237.600525 124.222427,235.524933 124.222427,233.383606 
	C127.795120,233.383606 131.267075,233.383606 134.739044,233.383606 
	C134.814987,233.148666 134.890930,232.913742 134.966873,232.678802 
	C134.136307,232.452148 133.318756,232.115036 132.473221,232.015503 
	C121.163857,230.684219 109.851181,229.380997 98.536758,228.093277 
	C97.897255,228.020493 96.856712,227.889236 96.640457,228.212189 
	C92.817459,233.921326 88.431839,230.244553 84.207039,229.031357 
	C81.538223,228.264984 78.875008,227.477692 76.220299,226.663879 
	C71.236809,225.136185 70.821220,223.929871 74.198120,218.702209 
	C69.567604,218.098694 65.304108,217.711746 61.120956,216.907120 
	C59.638329,216.621933 58.351376,215.319427 56.766788,214.354538 
	C50.523148,218.336121 45.508965,218.205719 41.660126,213.077942 
	C40.595551,211.659607 40.896271,209.081421 40.899166,207.035873 
	C40.901928,205.084595 41.333054,203.133911 40.788258,200.865005 
	C38.750446,204.177368 36.757927,203.805588 33.510418,203.475983 
	C25.437107,202.656601 18.842705,198.674423 12.384569,194.728241 
	C10.197236,193.391693 9.489988,188.696045 9.347374,185.480438 
	C9.300240,184.417664 13.146828,183.182190 15.142008,182.065460 
	C12.806938,179.001999 13.357771,176.657394 17.916346,172.564316 
	C20.998960,169.796494 25.126764,169.648529 27.757738,172.284698 
	C31.200209,175.733948 30.586540,178.937790 26.410666,182.060822 
	C29.914499,184.675934 32.670036,184.192627 36.568295,183.439072 
	C40.743076,182.632065 41.314205,178.606979 44.293896,177.189255 
	C41.797306,174.269791 39.210472,170.480011 35.846149,167.597748 
	C33.831112,165.871460 30.614656,164.850784 27.912247,164.796143 
	C24.363331,164.724350 18.508783,162.813370 18.009312,160.458527 
	C17.332661,157.268372 19.850191,154.643799 25.260332,153.181396 
	C23.698002,151.838486 22.455643,150.326843 20.859720,149.487244 
	C17.030214,147.472549 14.584075,144.289764 16.560253,140.454727 
	C17.709217,138.225006 21.489254,137.351059 23.191874,136.377823 
	C23.191874,134.563538 22.401041,131.882202 23.395460,130.690140 
	C24.592709,129.254913 27.307249,129.085403 29.060764,127.438400 
	C30.890747,126.626030 32.670708,125.287170 34.560810,125.107590 
	C38.897678,124.695541 43.624340,126.078522 46.214382,120.679047 
	C46.702034,119.662430 49.021210,119.337868 50.561745,119.050491 
	C54.088081,118.392677 54.014778,116.280273 53.250786,113.531258 
	C52.651272,111.374062 52.155220,109.121895 52.121876,106.904282 
	C52.107361,105.938988 53.434341,104.993904 54.032738,103.969910 
	C55.015999,102.287331 55.902073,100.547958 57.283157,97.992386 
	C59.065228,98.130333 61.887436,98.348793 64.709641,98.567253 
	C64.852844,98.349129 64.996056,98.131004 65.139259,97.912880 
	C63.816051,97.274719 62.554348,96.392776 61.158955,96.040726 
	C55.209381,94.539642 54.940449,93.134239 58.018997,88.133911 
	C59.144402,86.305962 57.905617,83.022446 57.745369,80.402962 
	C56.006294,80.911629 54.290485,81.532494 52.521980,81.899239 
	C50.519638,82.314468 48.470039,82.501793 46.440987,82.788208 
	C46.377266,81.267372 46.346176,79.744293 46.242233,78.226212 
	C46.083275,75.904640 45.874054,73.586502 45.676445,71.146889 
	C53.705158,70.501358 60.201595,72.519798 66.527153,75.808640 
	C67.864304,76.503860 71.625664,75.636635 71.660248,75.253632 
	C71.977966,71.735382 74.638611,72.810501 76.116058,73.101128 
	C82.626068,74.381714 86.760071,67.810684 93.305771,69.150284 
	C91.133293,65.479637 84.474564,65.653267 87.673767,59.748100 
	C82.664642,57.479206 81.816093,54.784206 84.584808,50.454346 
	C79.174866,47.882427 72.484451,46.471741 68.686440,42.377762 
	C65.178841,38.596844 64.772530,31.938833 63.001904,26.104502 
z"/>
<path fill="#FBF5EE" opacity="1.000000" stroke="none" 
	d="
M47.751057,97.998291 
	C48.937725,99.691681 50.622440,101.621094 50.263855,103.030731 
	C49.392113,106.457649 46.553818,108.385544 42.922661,107.906197 
	C37.776550,107.226845 37.126263,103.739265 38.350864,99.347801 
	C41.316181,98.901482 44.317932,98.449677 47.751057,97.998291 
z"/>
<path fill="#FAF4EC" opacity="1.000000" stroke="none" 
	d="
M166.296783,40.316162 
	C168.838196,39.927460 171.140488,39.709938 173.415359,39.873703 
	C175.141953,39.997993 177.016266,40.278870 178.488007,41.096439 
	C179.882523,41.871105 180.838669,43.434883 181.987610,44.651630 
	C180.782181,45.434982 179.577499,46.873562 178.371170,46.874950 
	C175.157303,46.878651 171.772003,46.740986 168.805267,45.679852 
	C167.458267,45.198059 166.940063,42.399105 166.296783,40.316162 
z"/>
<path fill="#F9F6EF" opacity="1.000000" stroke="none" 
	d="
M344.807312,59.019493 
	C349.753906,60.719925 350.507477,64.256477 349.772827,68.843155 
	C346.069214,68.309341 341.072906,71.329536 339.215729,65.872475 
	C338.020233,62.359612 340.311279,59.531853 344.807312,59.019493 
z"/>
<path fill="#FAF3EE" opacity="1.000000" stroke="none" 
	d="
M345.156555,200.039734 
	C346.200500,201.821564 346.838379,203.553711 347.687592,205.859802 
	C342.939423,205.691925 338.395569,207.537064 335.783356,203.038345 
	C335.085999,201.837402 336.514709,199.401901 336.967346,197.533188 
	C339.561707,198.352158 342.156097,199.171112 345.156555,200.039734 
z"/>
<path fill="#FBF4ED" opacity="1.000000" stroke="none" 
	d="
M189.888062,42.947380 
	C187.690109,42.293530 185.510849,42.067081 184.236298,40.874073 
	C183.247284,39.948345 183.019440,37.778397 183.175613,36.234573 
	C183.258850,35.411766 185.064133,33.970203 185.764587,34.142162 
	C188.569000,34.830635 192.228149,35.298153 193.708817,37.255905 
	C195.391235,39.480419 193.306519,42.103939 189.888062,42.947380 
z"/>
<path fill="#FAF5EC" opacity="1.000000" stroke="none" 
	d="
M276.757629,230.002258 
	C279.878876,230.803955 282.391602,233.254166 280.631836,235.138794 
	C279.005554,236.880478 275.064026,236.753784 272.137421,236.774338 
	C271.435883,236.779282 270.025024,234.050735 270.132141,232.671921 
	C270.465607,228.379547 274.083221,230.571686 276.757629,230.002258 
z"/>
<path fill="#F8F4EF" opacity="1.000000" stroke="none" 
	d="
M56.995396,68.364365 
	C55.821125,69.174385 54.670372,69.849884 53.476933,69.936394 
	C50.908295,70.122574 47.742710,70.690010 47.935616,66.561317 
	C47.992363,65.346779 49.147881,63.205517 49.873421,63.173828 
	C52.644878,63.052784 56.357754,61.756611 56.991035,66.471649 
	C57.056667,66.960281 56.999664,67.465385 56.995396,68.364365 
z"/>
<path fill="#FAF4ED" opacity="1.000000" stroke="none" 
	d="
M48.876698,84.998497 
	C50.898647,86.117180 52.758919,87.008820 53.958805,88.450203 
	C54.620247,89.244774 54.495506,91.987747 54.170029,92.090294 
	C52.598770,92.585350 50.730103,92.873299 49.186447,92.444473 
	C48.251270,92.184677 47.173187,90.506279 47.133350,89.429192 
	C47.079426,87.971199 47.959808,86.478645 48.876698,84.998497 
z"/>
<path fill="#FAF3EE" opacity="1.000000" stroke="none" 
	d="
M260.366913,240.869537 
	C253.889313,240.975220 253.856674,240.937653 254.365555,233.027740 
	C257.948730,234.505493 261.112854,235.810440 264.880493,237.364273 
	C262.924164,238.978806 261.847504,239.867371 260.366913,240.869537 
z"/>
<path fill="#FCF6F1" opacity="1.000000" stroke="none" 
	d="
M357.758789,86.995743 
	C355.249420,86.744057 352.175446,88.031723 352.153290,84.368958 
	C352.146637,83.274513 353.852264,81.252106 354.759430,81.260002 
	C356.670410,81.276642 359.181152,81.816597 360.335724,83.122902 
	C362.087799,85.105240 360.748108,86.692223 357.758789,86.995743 
z"/>
<path fill="#FAF4EC" opacity="1.000000" stroke="none" 
	d="
M243.016663,250.666290 
	C243.743774,249.151764 244.515869,247.155090 245.220291,247.178665 
	C247.145172,247.243149 249.041565,248.159210 250.949234,248.737991 
	C250.576675,249.830490 250.530899,251.431946 249.770401,251.920258 
	C247.469711,253.397522 244.922440,254.214264 243.016663,250.666290 
z"/>
<path fill="#FAF4EE" opacity="1.000000" stroke="none" 
	d="
M97.653252,249.862778 
	C96.084129,247.765594 95.646301,245.813599 98.064476,244.477768 
	C98.976807,243.973801 100.872482,243.473282 101.098305,243.804382 
	C102.196442,245.414490 102.880547,247.306992 104.117859,249.976913 
	C101.224190,249.976913 99.637466,249.976913 97.653252,249.862778 
z"/>
</svg>